<svg xmlns="http://www.w3.org/2000/svg" viewBox="0 0 17.175 34">
  <defs>
    <style>
      .cls-1 {
        fill: #385c8e;
      }
    </style>
  </defs>
  <path id="facebook-color" class="cls-1" d="M127.23,18.108h3.727V33.452a.548.548,0,0,0,.548.548h6.319a.548.548,0,0,0,.548-.548V18.181h4.284a.548.548,0,0,0,.545-.486l.651-5.649a.548.548,0,0,0-.545-.611h-4.935V7.894c0-1.067.575-1.609,1.708-1.609h3.227a.548.548,0,0,0,.548-.548V.552A.548.548,0,0,0,143.309,0h-4.447c-.031,0-.1,0-.2,0a8.522,8.522,0,0,0-5.572,2.1,5.843,5.843,0,0,0-1.943,5.194v4.141H127.23a.548.548,0,0,0-.548.548V17.56A.548.548,0,0,0,127.23,18.108Z" transform="translate(-126.682)"/>
</svg>
