<svg xmlns="http://www.w3.org/2000/svg" viewBox="0 0 16.603 18">
  <defs>
    <style>
      .cls-1 {
        fill: #fff;
      }
    </style>
  </defs>
  <path id="Path_2" data-name="Path 2" class="cls-1" d="M10.755,14.28a4.034,4.034,0,0,0-.253.516c-.39.962-1.3,3.2-3.992,3.2C4.057,18,3.3,15.463,3.3,14.538a.692.692,0,0,1,1.385,0c0,.021.194,2.077,1.829,2.077,1.463,0,2.121-.894,2.709-2.338a5.454,5.454,0,0,1,.337-.69.692.692,0,0,1,1.2.692Zm6.654,2.827a.692.692,0,0,1-.979,0L8.981,9.658a.02.02,0,0,0,0,.006L6.109,6.789l0,0-4.9-4.9A.692.692,0,0,1,2.191.91L4.374,3.093A5.477,5.477,0,0,1,9.386,0a5.83,5.83,0,0,1,5.679,5.959,8.083,8.083,0,0,1-2.125,5.7l4.47,4.47A.693.693,0,0,1,17.409,17.107Zm-5.451-6.429A6.636,6.636,0,0,0,13.68,5.959,4.444,4.444,0,0,0,9.386,1.385a3.937,3.937,0,0,0-3.921,2.8L6.943,5.662c.8-2.331,1.411-2.892,2.876-2.892,1.352,0,2.482.982,2.482,2.861,0,.292-.026.6-.275.6-.635,0,.227-2.077-1.861-2.077-1.329,0-1.976,1.109-1.763,2.967ZM5.373,11.849a1.22,1.22,0,0,0,1.385,1.311,2.438,2.438,0,0,0,2.017-1.745L6.723,9.363a.68.68,0,0,1,.034.172C6.757,10.8,5.373,10.455,5.373,11.849Z" transform="translate(-1.009)"/>
</svg>
