<svg xmlns="http://www.w3.org/2000/svg" viewBox="0 0 18 18">
  <defs>
    <style>
      .cls-1 {
        fill: #fff;
      }
    </style>
  </defs>
  <path id="Path_1" data-name="Path 1" class="cls-1" d="M17.1,8.28h-.882a.825.825,0,0,0-.9.72.825.825,0,0,0,.9.72H17.1A.825.825,0,0,0,18,9,.825.825,0,0,0,17.1,8.28ZM9,4.05A4.95,4.95,0,1,0,13.95,9,4.935,4.935,0,0,0,9,4.05Zm.09,8.55a3.6,3.6,0,1,1,0-7.2ZM2.682,9A.807.807,0,0,0,1.8,8.28H.9A.825.825,0,0,0,0,9a.825.825,0,0,0,.9.72h.9A.807.807,0,0,0,2.682,9ZM9,2.7a.825.825,0,0,0,.72-.9V.9A.825.825,0,0,0,9,0a.825.825,0,0,0-.72.9v.9A.825.825,0,0,0,9,2.7ZM9,15.3a.825.825,0,0,0-.72.9v.9A.825.825,0,0,0,9,18a.825.825,0,0,0,.72-.9v-.9A.825.825,0,0,0,9,15.3ZM15.629,3.389a.825.825,0,0,0,.127-1.146.825.825,0,0,0-1.145.127l-.63.63a.825.825,0,0,0-.127,1.145A.825.825,0,0,0,15,4.019ZM3,13.981l-.63.63a.825.825,0,0,0-.127,1.145.825.825,0,0,0,1.145-.127l.63-.63a.825.825,0,0,0,.127-1.146A.825.825,0,0,0,3,13.981Zm.389-11.61a.825.825,0,0,0-1.146-.127.826.826,0,0,0,.127,1.146l.63.63a.825.825,0,0,0,1.145.127A.825.825,0,0,0,4.019,3ZM13.981,15l.63.63a.738.738,0,1,0,1.018-1.018l-.63-.63A.738.738,0,1,0,13.981,15Z"/>
</svg>
