<svg xmlns="http://www.w3.org/2000/svg" viewBox="0 0 41.846 34">
  <defs>
    <style>
      .cls-1 {
        fill: #03a9f4;
      }
    </style>
  </defs>
  <path id="twitter-color" class="cls-1" d="M41.846,52.025A17.886,17.886,0,0,1,36.9,53.38a8.531,8.531,0,0,0,3.774-4.742,17.144,17.144,0,0,1-5.44,2.077A8.578,8.578,0,0,0,20.4,56.581a8.833,8.833,0,0,0,.2,1.956A24.282,24.282,0,0,1,2.914,49.564,8.581,8.581,0,0,0,5.55,61.03a8.472,8.472,0,0,1-3.876-1.057v.094A8.618,8.618,0,0,0,8.547,68.5a8.562,8.562,0,0,1-2.249.282,7.585,7.585,0,0,1-1.624-.146,8.66,8.66,0,0,0,8.016,5.976A17.238,17.238,0,0,1,2.053,78.268,16.068,16.068,0,0,1,0,78.15,24.152,24.152,0,0,0,13.161,82c15.786,0,24.417-13.077,24.417-24.412,0-.379-.013-.745-.031-1.109A17.114,17.114,0,0,0,41.846,52.025Z" transform="translate(0 -48)"/>
</svg>
