<?xml version="1.0" standalone="yes"?>
<svg width="300" height="168">
<path style="fill:#fcedda; stroke:none;" d="M0 0L0 168L300 168L300 0L0 0z"/>
<path style="fill:#978e7d; stroke:none;" d="M149 1L149 2L153 2L149 1z"/>
<path style="fill:#59503f; stroke:none;" d="M172 1L173 2L172 1z"/>
<path style="fill:#4e4534; stroke:none;" d="M189 1L189 4L190 4L189 1z"/>
<path style="fill:#b8ac9c; stroke:none;" d="M190 1L188 6C190.357 4.44821 191.344 3.59731 190 1z"/>
<path style="fill:#8f826f; stroke:none;" d="M205 1L205 6L206 6L205 1z"/>
<path style="fill:#baad9a; stroke:none;" d="M206 1C206.064 3.99339 205.946 5.34558 209 6L206 1z"/>
<path style="fill:#534834; stroke:none;" d="M149.333 2.66667L149.667 3.33333L149.333 2.66667z"/>
<path style="fill:#352a16; stroke:none;" d="M152 2L152 5L153 5L152 2z"/>
<path style="fill:#695d47; stroke:none;" d="M158 2L158 6L159 6L160 2L158 2z"/>
<path style="fill:#a09581; stroke:none;" d="M168 2L169 6L170 6L168 2z"/>
<path style="fill:#c7baa7; stroke:none;" d="M178 2L179 5L176 5L176 6L180 6L181 2L178 2z"/>
<path style="fill:#9c8f7c; stroke:none;" d="M186 2C184.503 4.46947 183.966 5.33293 187 6L188 3L186 2z"/>
<path style="fill:#b3a797; stroke:none;" d="M193 3L194 6L196 4L199 6L199 5L197 2L193 3z"/>
<path style="fill:#b7af9a; stroke:none;" d="M18 3L19 6L22 8L23 8C23.6534 6.03993 24 5.446 24 8L25 8L24 3L18 3z"/>
<path style="fill:#c2bba8; stroke:none;" d="M46 3L42 8L43 8L44 6L45 6L49 8L46 3z"/>
<path style="fill:#7d7560; stroke:none;" d="M57 3L57 6L58 6L57 3z"/>
<path style="fill:#574c38; stroke:none;" d="M156 3L157 4L156 3z"/>
<path style="fill:#a79b85; stroke:none;" d="M160 5L161 6L167 4L160 5z"/>
<path style="fill:#aa9e88; stroke:none;" d="M171 3L176 6L175 3L171 3z"/>
<path style="fill:#5c4f3c; stroke:none;" d="M176.333 3.66667L176.667 4.33333L176.333 3.66667z"/>
<path style="fill:#6f6251; stroke:none;" d="M178.333 3.66667L178.667 4.33333L178.333 3.66667z"/>
<path style="fill:#716453; stroke:none;" d="M180 3L180 6L181 6L180 3z"/>
<path style="fill:#908370; stroke:none;" d="M191 3L190 6L191 3z"/>
<path style="fill:#7d7161; stroke:none;" d="M198 5L200 6L201 6L199 3L198 5z"/>
<path style="fill:#7e7160; stroke:none;" d="M202 3L202 6L203 6L202 3z"/>
<path style="fill:#c1b4a1; stroke:none;" d="M203 3L205 6L203 3z"/>
<path style="fill:#786b58; stroke:none;" d="M207.333 3.66667L207.667 4.33333L207.333 3.66667z"/>
<path style="fill:#857865; stroke:none;" d="M209 6L210 6L212 4C209.86 2.88225 209.473 3.74922 209 6z"/>
<path style="fill:#776853; stroke:none;" d="M213.333 3.66667L213.667 4.33333L213.333 3.66667z"/>
<path style="fill:#867f6d; stroke:none;" d="M18 4L17 8L18 4z"/>
<path style="fill:#b3a896; stroke:none;" d="M27 5L27 7L40 8L40 5L30 6L31 4L27 5z"/>
<path style="fill:#5c5441; stroke:none;" d="M48.3333 4.66667L48.6667 5.33333L48.3333 4.66667z"/>
<path style="fill:#8b7f69; stroke:none;" d="M148 4L148 6L150 6L150 4L148 4z"/>
<path style="fill:#5a4e38; stroke:none;" d="M154.333 4.66667L154.667 5.33333L154.333 4.66667z"/>
<path style="fill:#685c46; stroke:none;" d="M164.333 4.66667L164.667 5.33333L164.333 4.66667z"/>
<path style="fill:#d2c6b0; stroke:none;" d="M165 4L165 7L168 6L168 5L165 4z"/>
<path style="fill:#6d614b; stroke:none;" d="M168.333 4.66667L168.667 5.33333L168.333 4.66667z"/>
<path style="fill:#625640; stroke:none;" d="M171.333 4.66667L171.667 5.33333L171.333 4.66667z"/>
<path style="fill:#6c5f4c; stroke:none;" d="M193.333 4.66667L193.667 5.33333L193.333 4.66667z"/>
<path style="fill:#6d604d; stroke:none;" d="M195.333 4.66667L195.667 5.33333L195.333 4.66667z"/>
<path style="fill:#d2c3ae; stroke:none;" d="M209 7L214 5L209 7z"/>
<path style="fill:#908977; stroke:none;" d="M26 5L28 8L26 5z"/>
<path style="fill:#605845; stroke:none;" d="M30 5L31 6L30 5z"/>
<path style="fill:#7c7562; stroke:none;" d="M41 5L41 8L42 8L41 5z"/>
<path style="fill:#aaa390; stroke:none;" d="M52 6L52 7L59 8L52 6z"/>
<path style="fill:#7c7562; stroke:none;" d="M59 5L59 8L60 8L59 5z"/>
<path style="fill:#aca491; stroke:none;" d="M61 8L64 6L70 8C69.0653 3.63815 61.9347 3.63817 61 8z"/>
<path style="fill:#5f5846; stroke:none;" d="M43.3333 6.66667L43.6667 7.33333L43.3333 6.66667z"/>
<path style="fill:#6c6553; stroke:none;" d="M50.3333 6.66667L50.6667 7.33333L50.3333 6.66667z"/>
<path style="fill:#766d5c; stroke:none;" d="M52.3333 7.66667L52.6667 8.33333L52.3333 7.66667z"/>
<path style="fill:#909287; stroke:none;" d="M85 10L85 15L82 14L83 29L83 30C86.9428 31.2068 87.4437 33.0318 87 37L88 37L86 11L232 11L266 11C271.105 11 276.251 10.0145 279 15L280 15L280 11L284 11L265 10L225 10L85 10z"/>
<path style="fill:#b5a895; stroke:none;" d="M71 11L71 13L73 13L71 11z"/>
<path style="fill:#b3a693; stroke:none;" d="M77 15L80 11L77 15z"/>
<path style="fill:#dce3dc; stroke:none;" d="M86 11L86 12L278 12L260 11L221 11L86 11z"/>
<path style="fill:#483e35; stroke:none;" d="M79 12L82 15L79 12z"/>
<path style="fill:#e4fcfc; stroke:none;" d="M86 12C90.2671 28.7771 87.7371 48.2875 86.4491 65.1304C85.9557 71.5816 88.8292 78.5619 88.8318 85.0394C88.8328 87.5565 86.6529 89.4624 86.6227 92C86.4651 105.251 87.5097 117.788 86.446 130.914C86.2339 133.531 88.5086 135.44 88.3079 138.039C88.1248 140.41 86.2114 142.328 86.4599 144.791C86.6984 147.156 89.2838 148.502 88.9637 151.015C88.4647 154.933 86.0509 157.664 86 162L279 162L279 155C272.215 151.019 280.533 145.701 276 140C281.632 140.947 283.517 136.219 278 134L276.013 124.95L278.384 118L275.883 111.91L278.373 91.9198L275.627 85.0648L278.373 78.8804L275.897 72.9252L278.373 65.9198L275.323 59.0502L279 50C272.738 46.6227 277.888 43.983 277.558 38.9105C276.922 29.1437 276.177 21.1772 279 12L86 12z"/>
<path style="fill:#8c7f6c; stroke:none;" d="M73 13L73 14L77 15L77 14L73 13z"/>
<path style="fill:#717a77; stroke:none;" d="M282 23L282 21L277 22C277.359 18.3861 278.386 17.3593 282 17C275.4 12.28 272.491 24.7727 282 23z"/>
<path style="fill:#3b4443; stroke:none;" d="M87 16L88 17L87 16z"/>
<path style="fill:#92a7a8; stroke:none;" d="M124 16L123 21C126.474 20.4235 127.423 19.4745 128 16L124 16z"/>
<path style="fill:#647879; stroke:none;" d="M129 16L129 20L130 20L129 16z"/>
<path style="fill:#778b8c; stroke:none;" d="M134 16L135 21L136 21L134 16z"/>
<path style="fill:#b2c6c7; stroke:none;" d="M146 16L145 21L151 21L150 16L149 16L149 20L148 20L146 16z"/>
<path style="fill:#7c9091; stroke:none;" d="M148 16L148 20L149 20L148 16z"/>
<path style="fill:#94a8a9; stroke:none;" d="M155 16L154 21L155 21L156 19L162 21L155 16z"/>
<path style="fill:#a7bbbc; stroke:none;" d="M164 16L164 21C167.363 21 170.204 21.7158 171 18L170 18L167 20L167 17L164 16z"/>
<path style="fill:#afc3c4; stroke:none;" d="M185 16L186 20L185 20L182 17L182 21L192 19L192 18L187 20L185 16z"/>
<path style="fill:#a5babb; stroke:none;" d="M196 18L203 21L205 18C207.66 21.6818 211.924 21.1308 216 20C213.804 16.711 211.374 17.6106 208 19C205.158 15.1205 200.219 17.7844 196 18z"/>
<path style="fill:#94a9aa; stroke:none;" d="M219 16L218 21L224 21L223 17L221 19L219 16z"/>
<path style="fill:#90a4a5; stroke:none;" d="M243 16L243 20L245 21L252 21L252 17L251 17L250 19L243 16z"/>
<path style="fill:#949995; stroke:none;" d="M277 22L279 20L282 21C281.027 15.4129 276.536 16.6591 277 22z"/>
<path style="fill:#616b6d; stroke:none;" d="M88 17L88 22L89 22L88 17z"/>
<path style="fill:#55696a; stroke:none;" d="M161.333 17.6667L161.667 18.3333L161.333 17.6667z"/>
<path style="fill:#abbfc0; stroke:none;" d="M175 17L174 18L174 20L175 21L179 22L180 17L175 17z"/>
<path style="fill:#586c6d; stroke:none;" d="M185 17L185 20L186 20L185 17z"/>
<path style="fill:#8fa4a5; stroke:none;" d="M227 17L226 21L227 21L227 17z"/>
<path style="fill:#a7bcbd; stroke:none;" d="M232 21C235.034 20.5043 236.071 20.126 236 17L232 21z"/>
<path style="fill:#b3c7c8; stroke:none;" d="M239 17L244 21L244 20L242 17L239 17z"/>
<path style="fill:#99adae; stroke:none;" d="M253 17L253 21L255 21L255 17L253 17z"/>
<path style="fill:#424c4b; stroke:none;" d="M282 17L282 22L283 22L282 17z"/>
<path style="fill:#9498a1; stroke:none;" d="M103 18L103 21L105 18L103 18z"/>
<path style="fill:#adc1c2; stroke:none;" d="M132 21L135 18L132 21z"/>
<path style="fill:#8a9e9f; stroke:none;" d="M137 21L138 21C138.653 19.0399 139 18.446 139 21C140.442 18.2395 137.696 17.6893 137 21z"/>
<path style="fill:#839798; stroke:none;" d="M141 21L142 21C142.653 19.0399 143 18.446 143 21C144.442 18.2395 141.696 17.6893 141 21z"/>
<path style="fill:#546869; stroke:none;" d="M152 18L152 21L153 21L152 18z"/>
<path style="fill:#697d7e; stroke:none;" d="M163 18L163 21L164 21L163 18z"/>
<path style="fill:#5f7374; stroke:none;" d="M167.333 18.6667L167.667 19.3333L167.333 18.6667z"/>
<path style="fill:#65797a; stroke:none;" d="M169.333 18.6667L169.667 19.3333L169.333 18.6667z"/>
<path style="fill:#738788; stroke:none;" d="M171 18L171 21L172 21L171 18z"/>
<path style="fill:#667a7b; stroke:none;" d="M187.333 18.6667L187.667 19.3333L187.333 18.6667z"/>
<path style="fill:#7d9192; stroke:none;" d="M194 18L193 22L196 21L194 18z"/>
<path style="fill:#748889; stroke:none;" d="M204 18L204 21L205 21L204 18z"/>
<path style="fill:#869b9c; stroke:none;" d="M229 18C229.662 21.1504 231.338 21.1504 232 18L229 18z"/>
<path style="fill:#677b7c; stroke:none;" d="M255.333 18.6667L255.667 19.3333L255.333 18.6667z"/>
<path style="fill:#92a7a8; stroke:none;" d="M256 21C259.319 20.6733 262.178 21.837 263 18C259.687 18.3111 256.809 17.2269 256 21z"/>
<path style="fill:#bed3d4; stroke:none;" d="M227 19L227 21L229 21L229 19L227 19z"/>
<path style="fill:#516667; stroke:none;" d="M239.333 19.6667L239.667 20.3333L239.333 19.6667z"/>
<path style="fill:#a8bcbd; stroke:none;" d="M128 20L128 22L130 20L128 20z"/>
<path style="fill:#3a4149; stroke:none;" d="M103 21L104 22L103 21z"/>
<path style="fill:#8ca1a2; stroke:none;" d="M238.667 21.3333L239.333 21.6667L238.667 21.3333z"/>
<path style="fill:#9baca6; stroke:none;" d="M279 24L278 29L279 24z"/>
<path style="fill:#e7a199; stroke:none;" d="M103 25L104 36L106 33L109 34L112 32L109 29L108 32L107 32L103 25z"/>
<path style="fill:#abbfbd; stroke:none;" d="M168.667 25.3333L169.333 25.6667L168.667 25.3333z"/>
<path style="fill:#ffcaca; stroke:none;" d="M100 27L103 34L104 34L103 26L100 27z"/>
<path style="fill:#adc1bf; stroke:none;" d="M164 26L164 28L166 26L164 26z"/>
<path style="fill:#4a5e5c; stroke:none;" d="M167 26L167 27L171 27L167 26z"/>
<path style="fill:#b6cac8; stroke:none;" d="M174 26L174 28L176 28L176 26L174 26z"/>
<path style="fill:#a5b9ba; stroke:none;" d="M182 26C180.551 28.6592 179.622 30.2611 183 31L184 26L182 26z"/>
<path style="fill:#5f7374; stroke:none;" d="M186 26L186 27L189 27L186 26z"/>
<path style="fill:#a5b9ba; stroke:none;" d="M202 26L203 31L205 31L206 26L202 26z"/>
<path style="fill:#657a7b; stroke:none;" d="M212 26L210 28L210 29L214 29L212 26z"/>
<path style="fill:#667b7c; stroke:none;" d="M218 26L219 27L218 26z"/>
<path style="fill:#718687; stroke:none;" d="M220 26L219 32L220 32L220 26z"/>
<path style="fill:#9f726f; stroke:none;" d="M106 27L106 30L107 30L106 27z"/>
<path style="fill:#546964; stroke:none;" d="M163 27L162 30L165 28L163 27z"/>
<path style="fill:#384c4a; stroke:none;" d="M165 27L166 28L165 27z"/>
<path style="fill:#4d6162; stroke:none;" d="M183 27L184 28L183 27z"/>
<path style="fill:#d6afb0; stroke:none;" d="M100 28L97 29L95 32L98 32L99 35L100 32L101 32L101 36L103 36L102 28L100 28z"/>
<path style="fill:#304540; stroke:none;" d="M173.667 28.3333L174.333 28.6667L173.667 28.3333z"/>
<path style="fill:#677b7a; stroke:none;" d="M175.667 28.3333L176.333 28.6667L175.667 28.3333z"/>
<path style="fill:#bed2d3; stroke:none;" d="M189 28L193 30L193 29L189 28z"/>
<path style="fill:#708485; stroke:none;" d="M190 28L190 29L194 30L190 28z"/>
<path style="fill:#1b2f30; stroke:none;" d="M194.333 28.6667L194.667 29.3333L194.333 28.6667z"/>
<path style="fill:#aabfc0; stroke:none;" d="M212.333 29.6667L212.667 30.3333L212.333 29.6667z"/>
<path style="fill:#5d6766; stroke:none;" d="M277 29L277 30L282 35C283.621 30.7326 280.979 29.31 277 29z"/>
<path style="fill:#5b5147; stroke:none;" d="M82 30L83 31L82 30z"/>
<path style="fill:#758a85; stroke:none;" d="M163.667 30.3333L164.333 30.6667L163.667 30.3333z"/>
<path style="fill:#929894; stroke:none;" d="M276 30L278 42L283 36C281.657 31.8554 280.434 30.3452 276 30z"/>
<path style="fill:#515d5d; stroke:none;" d="M275 31L275 35L276 35L275 31z"/>
<path style="fill:#737069; stroke:none;" d="M81 32L82 36L83 36L81 32z"/>
<path style="fill:#a9c1c1; stroke:none;" d="M123.667 34.3333L124.333 34.6667L123.667 34.3333z"/>
<path style="fill:#ecd65e; stroke:none;" d="M182 43L179 44L179 48C191.641 58.7686 200.227 48.9157 194 35C188.082 35.3556 180.873 35.0385 182 43z"/>
<path style="fill:#323b38; stroke:none;" d="M276 35L277 36L276 35z"/>
<path style="fill:#686b62; stroke:none;" d="M83 36L83 37L83 42L83 43L87 43L87 36L83 36z"/>
<path style="fill:#a4bcbc; stroke:none;" d="M135.667 36.3333L136.333 36.6667L135.667 36.3333z"/>
<path style="fill:#414c48; stroke:none;" d="M277.667 36.3333L278.333 36.6667L277.667 36.3333z"/>
<path style="fill:#9eb6b6; stroke:none;" d="M141.667 37.3333L142.333 37.6667L141.667 37.3333z"/>
<path style="fill:#a38046; stroke:none;" d="M187 37L189 46L194 47L190 37L187 37z"/>
<path style="fill:#c5d4cf; stroke:none;" d="M278 37L278 41L279 41L278 37z"/>
<path style="fill:#a1b9b9; stroke:none;" d="M147.667 38.3333L148.333 38.6667L147.667 38.3333z"/>
<path style="fill:#9ab2b2; stroke:none;" d="M153.667 39.3333L154.333 39.6667L153.667 39.3333z"/>
<path style="fill:#9fb7b7; stroke:none;" d="M159.667 40.3333L160.333 40.6667L159.667 40.3333z"/>
<path style="fill:#fbefb3; stroke:none;" d="M179 40L179 44L182 43L179 40z"/>
<path style="fill:#a1b9b9; stroke:none;" d="M165.667 41.3333L166.333 41.6667L165.667 41.3333z"/>
<path style="fill:#d1d299; stroke:none;" d="M186 41L188 47L190 44L186 41z"/>
<path style="fill:#d9d399; stroke:none;" d="M197 41L196 49L197 49L199 47L197 41z"/>
<path style="fill:#9aafb0; stroke:none;" d="M263 41L264 47L265 47L266 41L263 41z"/>
<path style="fill:#959691; stroke:none;" d="M81 42L82 50L88 50L89 49C87.5084 44.3928 85.6922 43.0355 81 42z"/>
<path style="fill:#a7bfbf; stroke:none;" d="M171.667 42.3333L172.333 42.6667L171.667 42.3333z"/>
<path style="fill:#b9b06b; stroke:none;" d="M184 42L185 49L191 47L191 46L186 47L186 42L184 42z"/>
<path style="fill:#535f5f; stroke:none;" d="M281 50L281 49C276.351 47.5743 276.351 44.4257 281 43C274.3 40.4546 273.342 50.2734 281 50z"/>
<path style="fill:#5c6b6e; stroke:none;" d="M87 43L88 48L89 48L87 43z"/>
<path style="fill:#b6b8ad; stroke:none;" d="M177.667 43.3333L178.333 43.6667L177.667 43.3333z"/>
<path style="fill:#102500; stroke:none;" d="M188 43L188 46L190 45L190 44L188 43z"/>
<path style="fill:#97a09d; stroke:none;" d="M282 50L283 49C279.994 39.7215 272.722 46.9936 282 50z"/>
<path style="fill:#3a4946; stroke:none;" d="M281 43L282 44L281 43z"/>
<path style="fill:#646e6d; stroke:none;" d="M282 44L282 48L283 48L282 44z"/>
<path style="fill:#413e37; stroke:none;" d="M81 45L81 48L82 48L81 45z"/>
<path style="fill:#a1b3b7; stroke:none;" d="M89.3333 45.6667L89.6667 46.3333L89.3333 45.6667z"/>
<path style="fill:#acbabd; stroke:none;" d="M274.333 45.6667L274.667 46.3333L274.333 45.6667z"/>
<path style="fill:#7c6218; stroke:none;" d="M186 48L186 49L193 48L186 48z"/>
<path style="fill:#acc5ca; stroke:none;" d="M203.667 47.3333L204.333 47.6667L203.667 47.3333z"/>
<path style="fill:#a2baba; stroke:none;" d="M209.667 48.3333L210.333 48.6667L209.667 48.3333z"/>
<path style="fill:#737570; stroke:none;" d="M83 49L83 55L83 56L87 56L87 49L83 49z"/>
<path style="fill:#9eb6b6; stroke:none;" d="M215 49L215 50L218 50L215 49z"/>
<path style="fill:#bb656e; stroke:none;" d="M264 49L264 54L265 54L264 49z"/>
<path style="fill:#e8aba8; stroke:none;" d="M265 50L265 54L264 54L261 52L263 61L267 60L267 56L268 56L270 58L273 56L265 50z"/>
<path style="fill:#b9d1d1; stroke:none;" d="M226 51L226 52L230 52L226 51z"/>
<path style="fill:#c4cecf; stroke:none;" d="M279 51L278 55L279 55L279 51z"/>
<path style="fill:#abc3c3; stroke:none;" d="M233 52L233 53L236 53L233 52z"/>
<path style="fill:#8f8969; stroke:none;" d="M2 53L2 111L3 111L4 69L2 53z"/>
<path style="fill:#716c46; stroke:none;" d="M3 55C23.7774 50.0533 49.6402 54 71 54L54 53L19 53L3 55z"/>
<path style="fill:#bcb696; stroke:none;" d="M4 54L4 55L70 55L49 54L4 54z"/>
<path style="fill:#080000; stroke:none;" d="M70 54L70 111L71 111L71 72L70 54z"/>
<path style="fill:#c3a5a5; stroke:none;" d="M258 54L258 56L260 56L260 54L258 54z"/>
<path style="fill:#e3d0cc; stroke:none;" d="M260 54L256 55L256 56L261 59L260 54z"/>
<path style="fill:#697374; stroke:none;" d="M277 55L277 56L281 56L277 55z"/>
<path style="fill:#fdfdc9; stroke:none;" d="M4 55L4 110L70 110L69 99L68 99L62 102C59.8485 115.489 47.9814 97.4796 61 101C59.9673 93.1392 64.103 93.1742 70 96L70 55L20 55L20 56L21 64C30.0085 73.145 5.65253 82.1066 9 69L16 70L19 65L19 64L15 63C9.22665 72.8468 0.70571 55.8707 14 60L16 55L4 55z"/>
<path style="fill:#e6e7bb; stroke:none;" d="M14 60C-1.2373 53.0155 10.5649 75.6112 15 63L19 64L19 65L16 70L9 69C2.75837 83.5024 33.3312 72.4008 21 64C24.3956 56.5921 16.4167 52.0447 14 60z"/>
<path style="fill:#afc7c7; stroke:none;" d="M252.667 55.3333L253.333 55.6667L252.667 55.3333z"/>
<path style="fill:#ced3aa; stroke:none;" d="M48 63L49 63L49 58L57 60C53.0626 53.9422 48.2127 56.5223 48 63z"/>
<path style="fill:#9e978d; stroke:none;" d="M82 56C82.7887 66.1215 92.1215 56.7887 82 56z"/>
<path style="fill:#5b6b6b; stroke:none;" d="M87 56C87.3539 60.0646 86.0646 61.3539 82 61L85 63L82 71L87 69L87 56z"/>
<path style="fill:#3b4384; stroke:none;" d="M188 56L187 60L190 60L188 56z"/>
<path style="fill:#626c6b; stroke:none;" d="M275 56L275 58L277 56L275 56z"/>
<path style="fill:#f7ffff; stroke:none;" d="M277.603 57.0818C275.132 58.8717 277.918 62.7131 280.397 60.9182C282.868 59.1283 280.082 55.287 277.603 57.0818z"/>
<path style="fill:#afb9ba; stroke:none;" d="M281.667 56.3333L282.333 56.6667L281.667 56.3333z"/>
<path style="fill:#695d4f; stroke:none;" d="M81 57L81 61L82 61L81 57z"/>
<path style="fill:#b6c5c2; stroke:none;" d="M274 57L276 60L274 57z"/>
<path style="fill:#374142; stroke:none;" d="M282 57L283 58L282 57z"/>
<path style="fill:#a0b4b5; stroke:none;" d="M89.3333 58.6667L89.6667 59.3333L89.3333 58.6667z"/>
<path style="fill:#8a989b; stroke:none;" d="M282 58C280.101 61.332 278.503 61.2378 275 60L276 76C283.048 73.7167 281.735 64.6091 284 58L282 58z"/>
<path style="fill:#e5e7b6; stroke:none;" d="M29 67C28.6353 68.2121 27.9572 69.7561 27.8449 71.0401C26.7451 83.62 43.9369 70.159 31 68C43.0772 56.3417 17.014 59.9191 29 67z"/>
<path style="fill:#d5d8ab; stroke:none;" d="M50 59L51 65C36.1274 70.6939 63.4299 78.2498 52 65L55 64L55 63L50 59z"/>
<path style="fill:#90976b; stroke:none;" d="M53.3333 59.6667L53.6667 60.3333L53.3333 59.6667z"/>
<path style="fill:#ccd09e; stroke:none;" d="M66 63L62 63L63 67L60 63L67 61C56.2553 53.9997 60.7984 75.2136 66 63z"/>
<path style="fill:#c8c8ff; stroke:none;" d="M190 59L188 74C191.077 71.3115 190.924 62.8485 190 59z"/>
<path style="fill:#daddb0; stroke:none;" d="M38 60C36.608 68.6134 43.2296 71.2938 47 63L38 60z"/>
<path style="fill:#252f53; stroke:none;" d="M188 60L188 73L189 73L188 60z"/>
<path style="fill:#75867e; stroke:none;" d="M198 62L200 65L200 62L198 62z"/>
<path style="fill:#a3ab9e; stroke:none;" d="M194 63L194 66L196 66L196 63L194 63z"/>
<path style="fill:#485041; stroke:none;" d="M193.333 64.6667L193.667 65.3333L193.333 64.6667z"/>
<path style="fill:#858f86; stroke:none;" d="M192 65L195 68L192 65z"/>
<path style="fill:#b2b58a; stroke:none;" d="M18 68L19 71L20 71L20 68L18 68z"/>
<path style="fill:#929a9c; stroke:none;" d="M81 70L81 75C85.8643 74.8403 87.4982 73.6354 89 69L81 70z"/>
<path style="fill:#64645c; stroke:none;" d="M88 70L83 75L83 76L84 82C86.9062 79.5297 89.3908 73.6687 88 70z"/>
<path style="fill:#b4c8c9; stroke:none;" d="M89 70L89 74L90 74L89 70z"/>
<path style="fill:#677172; stroke:none;" d="M282 70L277 75L277 76C281.145 76.4019 283.58 74.175 282 70z"/>
<path style="fill:#384442; stroke:none;" d="M275.333 71.6667L275.667 72.3333L275.333 71.6667z"/>
<path style="fill:#e2e8bc; stroke:none;" d="M39 75L44 75L44 81C48.726 75.891 43.1645 69.1782 39 75z"/>
<path style="fill:#d2daa9; stroke:none;" d="M58 75L65 78C66.6421 73.0936 60.7837 71.1256 58 75z"/>
<path style="fill:#bcb982; stroke:none;" d="M40 76L44 81L40 76z"/>
<path style="fill:#cdd29c; stroke:none;" d="M49 79L56 78C53.1351 75.866 50.9862 75.9453 49 79z"/>
<path style="fill:#a5a984; stroke:none;" d="M60.3333 76.6667L60.6667 77.3333L60.3333 76.6667z"/>
<path style="fill:#c7ceaf; stroke:none;" d="M63 76L60 81L64 81L63 76z"/>
<path style="fill:#e8dc54; stroke:none;" d="M188 76L185 77L180 82C180.031 91.052 183.81 93.3685 192 96L193 89C179.674 93.437 188.76 73.9161 196 88L197 88C198.483 81.8103 192.437 79.2383 188 76z"/>
<path style="fill:#dae1ae; stroke:none;" d="M18 80L24 80L24 81L19 85L18 81L17 81L18 85L10 85L7 82L8 87L12 90C15.3657 87.5578 22.7096 87.3453 24.9529 84.2616C28.0166 80.0501 21.196 75.5564 18 80z"/>
<path style="fill:#96a8a8; stroke:none;" d="M279 77L279 81L280 81L279 77z"/>
<path style="fill:#dcdfb0; stroke:none;" d="M6 81L12 82C13.0873 77.4403 7.95296 78.3221 6 81z"/>
<path style="fill:#cacda0; stroke:none;" d="M51 80L50 83L50 84L55 80L51 80z"/>
<path style="fill:#7c9484; stroke:none;" d="M99 83L106 82C103.087 79.9132 101.451 80.5229 99 83z"/>
<path style="fill:#aab384; stroke:none;" d="M19 81L20 84L21 84L21 81L19 81z"/>
<path style="fill:#d2d6a4; stroke:none;" d="M30 81C28.0432 85.9932 29.6765 88.5864 35 89L35 81L30 81z"/>
<path style="fill:#8c9592; stroke:none;" d="M83 81C81.7416 85.7257 83.1606 87.6229 88 88L89 82L83 81z"/>
<path style="fill:#dcf5e0; stroke:none;" d="M102.667 81.3333L103.333 81.6667L102.667 81.3333z"/>
<path style="fill:#9a9c9b; stroke:none;" d="M277 81C275.354 88.9086 282.995 88.4916 281 81L277 81z"/>
<path style="fill:#495456; stroke:none;" d="M278.667 81.3333L279.333 81.6667L278.667 81.3333z"/>
<path style="fill:#9ba372; stroke:none;" d="M10.3333 82.6667L10.6667 83.3333L10.3333 82.6667z"/>
<path style="fill:#d4efcc; stroke:none;" d="M97 87L102 90L102 87L103 87L104 90L107 82C102.805 82.7954 99.1195 82.9565 97 87z"/>
<path style="fill:#66575e; stroke:none;" d="M184 88L185 88C187.722 82.7574 191.091 84.7513 191 90C197.32 83.6223 185.504 78.5679 184 88z"/>
<path style="fill:#edd57b; stroke:none;" d="M191 82L191 83C194.307 86.7712 193.498 91.4793 192 96C198.418 93.0931 197.562 84.2758 191 82z"/>
<path style="fill:#6b797a; stroke:none;" d="M275 82C275.254 89.7565 282.341 91.5244 283 83L282 83C280.435 88.1027 276.539 87.2997 277 82L275 82z"/>
<path style="fill:#dedfb3; stroke:none;" d="M60 86L67 86L67 87L62 92C67.2746 91.5793 67.8812 88.8983 68 84C64.5074 83.5977 62.0797 82.8827 60 86z"/>
<path style="fill:#5a4e40; stroke:none;" d="M81 83L81 87L82 87L81 83z"/>
<path style="fill:#425252; stroke:none;" d="M88 83L88 88L89 88L88 83z"/>
<path style="fill:#adc1c2; stroke:none;" d="M89 83L89 87L90 87L89 83z"/>
<path style="fill:#79927f; stroke:none;" d="M98.3333 83.6667L98.6667 84.3333L98.3333 83.6667z"/>
<path style="fill:#6f8970; stroke:none;" d="M107.333 83.6667L107.667 84.3333L107.333 83.6667z"/>
<path style="fill:#63889a; stroke:none;" d="M187 83L187 84L190 89C191.753 85.719 190.336 84.0613 187 83z"/>
<path style="fill:#adb586; stroke:none;" d="M34.3333 84.6667L34.6667 85.3333L34.3333 84.6667z"/>
<path style="fill:#4d607e; stroke:none;" d="M186 84L185 90L191 90L191 89L187 89L186 84z"/>
<path style="fill:#7b97d8; stroke:none;" d="M187 84L187 89L190 88L190 85L187 84z"/>
<path style="fill:#708370; stroke:none;" d="M202 84L201 90L205 87C205.951 84.4934 204.348 84.2942 202 84z"/>
<path style="fill:#5c7756; stroke:none;" d="M100 85L101 86L100 85z"/>
<path style="fill:#082300; stroke:none;" d="M101.333 85.6667L101.667 86.3333L101.333 85.6667z"/>
<path style="fill:#072300; stroke:none;" d="M104.333 85.6667L104.667 86.3333L104.333 85.6667z"/>
<path style="fill:#a9c3a8; stroke:none;" d="M107 85L105 90L109 85L107 85z"/>
<path style="fill:#a2aed4; stroke:none;" d="M115 87L167 86C156.734 81.6923 139.158 85 128 85C123.932 85 117.848 83.7407 115 87z"/>
<path style="fill:#3a4270; stroke:none;" d="M116 86L116 87L171 87L155 86L116 86z"/>
<path style="fill:#d3d6a9; stroke:none;" d="M51 87L51 95C57.7232 96.2692 58.1098 91.0844 56 86L51 87z"/>
<path style="fill:#ebdd96; stroke:none;" d="M178 86C179.179 89.6839 180.143 91.9107 184 93L184 92L178 86z"/>
<path style="fill:#bde8f9; stroke:none;" d="M188.667 86.3333L189.333 86.6667L188.667 86.3333z"/>
<path style="fill:#999a78; stroke:none;" d="M62.3333 87.6667L62.6667 88.3333L62.3333 87.6667z"/>
<path style="fill:#6e675f; stroke:none;" d="M82 87C83.9743 91.2249 83.846 92.7507 82 97L88 96L88 88L82 87z"/>
<path style="fill:#7e9784; stroke:none;" d="M98 87L105 91L104 88L98 87z"/>
<path style="fill:#29432a; stroke:none;" d="M102 87L102 90L103 90L102 87z"/>
<path style="fill:#7b9675; stroke:none;" d="M104 87L105 88L104 87z"/>
<path style="fill:#7c8777; stroke:none;" d="M204 87L205 88L204 87z"/>
<path style="fill:#d5d9a7; stroke:none;" d="M36 95L38 91L44 91L40 100L42 103L43 103L44 98L49 98L49 103L50 103C50.5643 98.6541 49.2762 96.9134 45 96C46.388 87.5459 37.6395 87.0716 36 95z"/>
<path style="fill:#c8cea0; stroke:none;" d="M15 89L13 93L18 94L15 89z"/>
<path style="fill:#aeb07e; stroke:none;" d="M17.3333 89.6667L17.6667 90.3333L17.3333 89.6667z"/>
<path style="fill:#c4ca9a; stroke:none;" d="M23 92L30 91C27.1905 88.9568 25.0453 89.1149 23 92z"/>
<path style="fill:#535736; stroke:none;" d="M186 90L186 91L190 91L186 90z"/>
<path style="fill:#99adac; stroke:none;" d="M279 90L279 94L280 94L279 90z"/>
<path style="fill:#a9b587; stroke:none;" d="M39 92L39 97C42.8581 96.169 41.5054 93.9273 39 92z"/>
<path style="fill:#a2ab7e; stroke:none;" d="M42.3333 92.6667L42.6667 93.3333L42.3333 92.6667z"/>
<path style="fill:#b4ba8a; stroke:none;" d="M25 93L26 97L28 97L29 93L25 93z"/>
<path style="fill:#e1e0c1; stroke:none;" d="M61 101C46.4837 94.3239 60.7267 118.343 62 102L68 99L69 99L69 102C72.4905 93.4573 58.4832 89.2757 61 101z"/>
<path style="fill:#edde8b; stroke:none;" d="M184 94L184 95L191 96L184 94z"/>
<path style="fill:#68736f; stroke:none;" d="M277.314 95.0864C273.338 97.3462 276.463 103.975 280.686 101.712C284.708 99.5569 281.45 92.7356 277.314 95.0864z"/>
<path style="fill:#dadcaa; stroke:none;" d="M11.0394 95.9707C5.64132 97.2133 7.50092 104.685 12.8565 103.623C17.6475 102.674 15.8516 94.8629 11.0394 95.9707z"/>
<path style="fill:#a09488; stroke:none;" d="M82 102L90 97C85.1683 95.1032 80.6055 95.9619 82 102z"/>
<path style="fill:#c0d3d7; stroke:none;" d="M110 100L120 100L120 99L117 98L120 97C115.825 94.6383 112.461 96.1186 110 100z"/>
<path style="fill:#c0d2d4; stroke:none;" d="M143 96L143 100L148 97L143 96z"/>
<path style="fill:#bdd5d5; stroke:none;" d="M165 98L167 100L172 97C169.46 96.477 169.315 96.4053 169 99L168 99L168 95L165 98z"/>
<path style="fill:#919d99; stroke:none;" d="M278.278 96.3418C275.744 97.3162 277.118 101.474 279.722 100.539C282.281 99.6214 280.872 95.344 278.278 96.3418z"/>
<path style="fill:#daddae; stroke:none;" d="M33.213 96.8511C28.3549 98.5246 30.9095 106.034 35.8557 104.338C40.665 102.689 37.9894 95.2057 33.213 96.8511z"/>
<path style="fill:#879c9d; stroke:none;" d="M98 96L96 100L102 100L100 96L98 96z"/>
<path style="fill:#576c6d; stroke:none;" d="M101 96L101 99L102 99L101 96z"/>
<path style="fill:#a4b6b8; stroke:none;" d="M106 96L104 100L109 100L106 96z"/>
<path style="fill:#98abaf; stroke:none;" d="M128 96L117 97C118.561 99.0658 120.023 99.9301 122 98L123 98L128 100L128 96z"/>
<path style="fill:#a2b4b4; stroke:none;" d="M137 97L137 99L138 100L140 100L140 96L137 97z"/>
<path style="fill:#8b9f9e; stroke:none;" d="M149.667 96.3333L150.333 96.6667L149.667 96.3333z"/>
<path style="fill:#5b7071; stroke:none;" d="M164 96L164 99L165 99L164 96z"/>
<path style="fill:#a3aa81; stroke:none;" d="M62 97L64 101L65 101L62 97z"/>
<path style="fill:#b2b78e; stroke:none;" d="M65.3333 97.6667L65.6667 98.3333L65.3333 97.6667z"/>
<path style="fill:#819093; stroke:none;" d="M109 97L109 99L111 99L111 97L109 97z"/>
<path style="fill:#708387; stroke:none;" d="M115.333 97.6667L115.667 98.3333L115.333 97.6667z"/>
<path style="fill:#7c9194; stroke:none;" d="M130 97L130 99L132 97L130 97z"/>
<path style="fill:#859998; stroke:none;" d="M132 100L137 100C136.212 96.2887 133.267 96.8252 132 100z"/>
<path style="fill:#657876; stroke:none;" d="M143.333 97.6667L143.667 98.3333L143.333 97.6667z"/>
<path style="fill:#8fa3a4; stroke:none;" d="M145 97L145 100L147 97L145 97z"/>
<path style="fill:#4f6364; stroke:none;" d="M147.333 97.6667L147.667 98.3333L147.333 97.6667z"/>
<path style="fill:#55696a; stroke:none;" d="M149 97L149 100L150 100L149 97z"/>
<path style="fill:#91a5a6; stroke:none;" d="M151 100L154 100L156 98L157 98C159.247 100.565 161.188 99.5178 163 97L159 99C156.243 96.6076 151.924 95.6878 151 100z"/>
<path style="fill:#627778; stroke:none;" d="M166 97L166 100L167 100L166 97z"/>
<path style="fill:#7c9192; stroke:none;" d="M168.333 97.6667L168.667 98.3333L168.333 97.6667z"/>
<path style="fill:#7d9293; stroke:none;" d="M170 99L174 100C173.361 97.0775 172.134 97.1437 170 99z"/>
<path style="fill:#f2fbd0; stroke:none;" d="M11 103L10 99L14 99L13 103L14 103L15 98C11.1227 98.129 7.47551 99.1044 11 103z"/>
<path style="fill:#a1a580; stroke:none;" d="M10.3333 99.6667L10.6667 100.333L10.3333 99.6667z"/>
<path style="fill:#dce1a9; stroke:none;" d="M21.3179 100.047C16.9297 102.769 21.1591 109.774 25.5664 106.953C29.9513 104.146 25.8462 97.238 21.3179 100.047z"/>
<path style="fill:#9fa47b; stroke:none;" d="M44 100L46 104L44 100z"/>
<path style="fill:#79796f; stroke:none;" d="M83 101L84 108L88 114L89 114L88 101L83 101z"/>
<path style="fill:#cbdbf2; stroke:none;" d="M187 102L187 129L188 129L187 102z"/>
<path style="fill:#252d6b; stroke:none;" d="M188 102L188 128L189 128L188 102z"/>
<path style="fill:#c3ceff; stroke:none;" d="M189 102L190 131L191 131L189 102z"/>
<path style="fill:#959e69; stroke:none;" d="M56.3333 103.667L56.6667 104.333L56.3333 103.667z"/>
<path style="fill:#94a7a5; stroke:none;" d="M103 104L103 105L108 103L103 104z"/>
<path style="fill:#cbd7d3; stroke:none;" d="M278 103L278 107L279 107L278 103z"/>
<path style="fill:#9faea9; stroke:none;" d="M279 103L279 107L280 107L279 103z"/>
<path style="fill:#374c4d; stroke:none;" d="M162 105L161 106L161 107L162 108L163 108L164 107L164 106L162 105z"/>
<path style="fill:#9eb2b0; stroke:none;" d="M103 106L103 108L105 106L103 106z"/>
<path style="fill:#9baeaa; stroke:none;" d="M106 106L105 111L106 111L106 106z"/>
<path style="fill:#687c7a; stroke:none;" d="M113 106L111 108L111 109L113 111L114 111L116 109L116 108L113 106z"/>
<path style="fill:#8da19f; stroke:none;" d="M122 106L122 110L123 110L122 106z"/>
<path style="fill:#697d7e; stroke:none;" d="M149 106L147 108L147 109L150 111L149 106z"/>
<path style="fill:#969893; stroke:none;" d="M82 128L87 129C87.9439 125.769 89.2964 106.107 83.2994 108.422C82.1255 108.875 81.4712 125.451 82 128z"/>
<path style="fill:#203530; stroke:none;" d="M104.333 107.667L104.667 108.333L104.333 107.667z"/>
<path style="fill:#000605; stroke:none;" d="M120 107L121 108L120 107z"/>
<path style="fill:#2d403e; stroke:none;" d="M140.333 107.667L140.667 108.333L140.333 107.667z"/>
<path style="fill:#687877; stroke:none;" d="M142 107L142 111L143 111L144 107L142 107z"/>
<path style="fill:#637778; stroke:none;" d="M156 107L158 111L159 107L156 107z"/>
<path style="fill:#949a98; stroke:none;" d="M277 107L279 120C282.316 114.668 284.925 108.693 277 107z"/>
<path style="fill:#3d4945; stroke:none;" d="M278.667 107.333L279.333 107.667L278.667 107.333z"/>
<path style="fill:#96aaa8; stroke:none;" d="M119 108L119 113L120 113L122 110L119 108z"/>
<path style="fill:#4c605e; stroke:none;" d="M120 108L121 109L120 108z"/>
<path style="fill:#a7bdbb; stroke:none;" d="M126 108L126 109L131 110L131 108L126 108z"/>
<path style="fill:#1e3336; stroke:none;" d="M131.333 108.667L131.667 109.333L131.333 108.667z"/>
<path style="fill:#b9ced1; stroke:none;" d="M132 108L132 110L134 110L134 108L132 108z"/>
<path style="fill:#93a5a5; stroke:none;" d="M139 109L139 111L141 109L139 109z"/>
<path style="fill:#4b5556; stroke:none;" d="M275.333 109.667L275.667 110.333L275.333 109.667z"/>
<path style="fill:#383419; stroke:none;" d="M3 110L3 111L70 111L49 110L3 110z"/>
<path style="fill:#98aba7; stroke:none;" d="M107 113L110 110L107 113z"/>
<path style="fill:#dcd5b9; stroke:none;" d="M3 111L3 112L71 112L50 111L3 111z"/>
<path style="fill:#666f6a; stroke:none;" d="M275 112L278 115L275 112z"/>
<path style="fill:#945f51; stroke:none;" d="M179.643 115.067C177.453 116.69 180.404 119.38 182.357 117.933C184.547 116.31 181.596 113.62 179.643 115.067z"/>
<path style="fill:#3e4d50; stroke:none;" d="M194 114L194 117L195 117L194 114z"/>
<path style="fill:#4c5e60; stroke:none;" d="M196 114L196 118L197 118L196 114z"/>
<path style="fill:#a7604c; stroke:none;" d="M25 117L25 119L54 120L54 116L25 117z"/>
<path style="fill:#ffb8b8; stroke:none;" d="M180.667 116.333L181.333 116.667L180.667 116.333z"/>
<path style="fill:#854232; stroke:none;" d="M53 117L53 119L55 119L55 117L53 117z"/>
<path style="fill:#b68775; stroke:none;" d="M55.3333 117.667L55.6667 118.333L55.3333 117.667z"/>
<path style="fill:#4c5554; stroke:none;" d="M278 120L278 121C280.987 123.715 280.987 125.285 278 128L278 129C283.762 127.251 283.762 121.749 278 120z"/>
<path style="fill:#5e6b64; stroke:none;" d="M276 121L275 125L276 125L278 121L276 121z"/>
<path style="fill:#909a9b; stroke:none;" d="M278 121L275 127C280.32 128.185 283.384 124.006 278 121z"/>
<path style="fill:#b8a996; stroke:none;" d="M15 122L13 127L17 122L15 122z"/>
<path style="fill:#9fa48d; stroke:none;" d="M45 122L41 126L40 126L37 124C37.6776 127.162 40.3201 127.916 42 125L43 125L44 125L56 127L56 124L45 122z"/>
<path style="fill:#ada493; stroke:none;" d="M58 128L59 128L60 124L61 124L61 127L62 127L63 122L58 128z"/>
<path style="fill:#4f5f5f; stroke:none;" d="M88 122L88 127L89 127L88 122z"/>
<path style="fill:#6e6659; stroke:none;" d="M16 123L16 127L17 127L16 123z"/>
<path style="fill:#999282; stroke:none;" d="M22 123L22 127L23 127L24 123L22 123z"/>
<path style="fill:#6b6452; stroke:none;" d="M39.3333 123.667L39.6667 124.333L39.3333 123.667z"/>
<path style="fill:#8b7f73; stroke:none;" d="M18 127L19 127C19.6534 125.04 20 124.446 20 127C21.442 124.24 18.6961 123.689 18 127z"/>
<path style="fill:#756e5e; stroke:none;" d="M25 124L25 127L26 127L25 124z"/>
<path style="fill:#9a9984; stroke:none;" d="M27 127L28 127C28.6534 125.04 29 124.446 29 127C30.442 124.24 27.6961 123.689 27 127z"/>
<path style="fill:#b5b09d; stroke:none;" d="M31 127L33 125L34 125L36 127C35.2045 123.288 31.7955 123.288 31 127z"/>
<path style="fill:#c0b19e; stroke:none;" d="M63 127L65 125L66 125L69 127C66.8736 124.35 63.9002 122.799 63 127z"/>
<path style="fill:#968774; stroke:none;" d="M68 124L70 127L70 124L68 124z"/>
<path style="fill:#91a6a7; stroke:none;" d="M261 124L262 129L264 129L264 124L261 124z"/>
<path style="fill:#7c7761; stroke:none;" d="M36.3333 125.667L36.6667 126.333L36.3333 125.667z"/>
<path style="fill:#7e6f5c; stroke:none;" d="M65.3333 125.667L65.6667 126.333L65.3333 125.667z"/>
<path style="fill:#717169; stroke:none;" d="M83 127C85.3831 133.685 77.7857 138.391 86 143L83 127z"/>
<path style="fill:#847967; stroke:none;" d="M25 128L24 133L25 133L25 128z"/>
<path style="fill:#b0a893; stroke:none;" d="M44 128L41 129L40 133L41 133L42 131L43 131L43 133L45 131L46 131L49 133L46 128L44 128z"/>
<path style="fill:#5a3885; stroke:none;" d="M188 128L188 133L189 133L188 128z"/>
<path style="fill:#8f8772; stroke:none;" d="M54 129L53 133L58 133L57 130L56 132L55 132L54 129z"/>
<path style="fill:#95a5a5; stroke:none;" d="M279 129L279 133L280 133L279 129z"/>
<path style="fill:#aba291; stroke:none;" d="M26 133L27 133L28 131L29 131C31.4353 133.786 34.0184 132.749 36 130L32 132L31 132C28.5745 129.897 26.7455 129.521 26 133z"/>
<path style="fill:#776f5c; stroke:none;" d="M31.3333 130.667L31.6667 131.333L31.3333 130.667z"/>
<path style="fill:#6d624e; stroke:none;" d="M36 130L36 133L37 133L36 130z"/>
<path style="fill:#b0a893; stroke:none;" d="M50 133L51 133L53 131C50.8603 129.882 50.4732 130.749 50 133z"/>
<path style="fill:#79715c; stroke:none;" d="M58.3333 130.667L58.6667 131.333L58.3333 130.667z"/>
<path style="fill:#89816c; stroke:none;" d="M60.3333 130.667L60.6667 131.333L60.3333 130.667z"/>
<path style="fill:#c9c1ac; stroke:none;" d="M58 133L61 133L60 131L58 133z"/>
<path style="fill:#f09497; stroke:none;" d="M262 131L262 137L261 137L261 134L258 141L259 141L259 138L260 138L261 143L262 143L262 138L263 138L263 143L265 143L262 131z"/>
<path style="fill:#bdb09d; stroke:none;" d="M23 132L23 134L25 134L23 132z"/>
<path style="fill:#f4e980; stroke:none;" d="M187 132L180 139C185.148 136.399 199.111 134.11 196.288 144.995C195.321 148.725 191.267 150.411 190 154C199.585 152.707 200.758 143.724 198 136L187 132z"/>
<path style="fill:#e8f8b7; stroke:none;" d="M189 132C190.769 134.034 192.231 134.034 194 132L189 132z"/>
<path style="fill:#f5edbc; stroke:none;" d="M180 136L184 133L180 136z"/>
<path style="fill:#d3aca5; stroke:none;" d="M265 133L267 141L270 139L266 137L265 133z"/>
<path style="fill:#424c4e; stroke:none;" d="M278.667 133.333L279.333 133.667L278.667 133.333z"/>
<path style="fill:#96a1a5; stroke:none;" d="M280 133L280 135L282 135L280 133z"/>
<path style="fill:#8f9b97; stroke:none;" d="M87 142L90 139C86.3471 131.865 79.2222 137.625 87 142z"/>
<path style="fill:#4a5652; stroke:none;" d="M86.6667 134.333L87.3333 134.667L86.6667 134.333z"/>
<path style="fill:#3d4645; stroke:none;" d="M276 134L277 135L276 134z"/>
<path style="fill:#516160; stroke:none;" d="M88.3333 135.667L88.6667 136.333L88.3333 135.667z"/>
<path style="fill:#a8782c; stroke:none;" d="M188 135C188.772 139.557 191.932 141.291 196 143L196 144L194 149C199.852 143.264 194.925 136.401 188 135z"/>
<path style="fill:#96a5a2; stroke:none;" d="M275 135L275 140L276 140L275 135z"/>
<path style="fill:#7a8686; stroke:none;" d="M282 135L282 140L283 140L282 135z"/>
<path style="fill:#80918b; stroke:none;" d="M112.333 136.667L112.667 137.333L112.333 136.667z"/>
<path style="fill:#cadad7; stroke:none;" d="M111 137L111 140L112 140L119 140L117 136L111 137z"/>
<path style="fill:#8c9f9b; stroke:none;" d="M117 136L119 139L119 136L117 136z"/>
<path style="fill:#a8b9b3; stroke:none;" d="M140 136L142 140L148 136L140 136z"/>
<path style="fill:#85524f; stroke:none;" d="M181 149L188 148L189 148L190 144C187.842 143.022 187.499 142.812 189 141L188 136C179.943 136.9 179.725 142.129 181 149z"/>
<path style="fill:#bfc5c5; stroke:none;" d="M254 138L258 136L254 138z"/>
<path style="fill:#c1d1d1; stroke:none;" d="M274 136L274 140L275 140L274 136z"/>
<path style="fill:#d4ccb7; stroke:none;" d="M49 137L52 142L52 138L49 137z"/>
<path style="fill:#71847e; stroke:none;" d="M140.333 137.667L140.667 138.333L140.333 137.667z"/>
<path style="fill:#716857; stroke:none;" d="M28.3333 138.667L28.6667 139.333L28.3333 138.667z"/>
<path style="fill:#c0b5a3; stroke:none;" d="M30 138L30 141L33 141L33 138L30 138z"/>
<path style="fill:#8e8671; stroke:none;" d="M50 138L50 140L52 140L52 138L50 138z"/>
<path style="fill:#213130; stroke:none;" d="M88.3333 138.667L88.6667 139.333L88.3333 138.667z"/>
<path style="fill:#7a8a87; stroke:none;" d="M115.667 138.333L116.333 138.667L115.667 138.333z"/>
<path style="fill:#c4dcdc; stroke:none;" d="M238 139L238 140L248 140L248 138L238 139z"/>
<path style="fill:#a5b9ba; stroke:none;" d="M250.667 138.333L251.333 138.667L250.667 138.333z"/>
<path style="fill:#bacac7; stroke:none;" d="M119 142L125 144L126 141L119 142z"/>
<path style="fill:#9f5763; stroke:none;" d="M188 139L191 148L181 149L181 150C187.952 151.753 192.277 149.517 196 144L196 143L191 144L188 139z"/>
<path style="fill:#b4ae98; stroke:none;" d="M38 140L37 143L38 140z"/>
<path style="fill:#7a8e8d; stroke:none;" d="M126 140L123 143L126 145L126 140z"/>
<path style="fill:#aabbb5; stroke:none;" d="M147 142L151 142C149.444 140.187 148.556 140.187 147 142z"/>
<path style="fill:#5d706c; stroke:none;" d="M153.333 140.667L153.667 141.333L153.333 140.667z"/>
<path style="fill:#f2dd80; stroke:none;" d="M178 140C174.808 146.455 179.833 153.485 187 152L187 151C180.955 150.037 180.24 145.48 180 140L178 140z"/>
<path style="fill:#b5cdcf; stroke:none;" d="M220 141L220 142L226 142L220 141z"/>
<path style="fill:#9cb4b6; stroke:none;" d="M228 140L228 141L232 141L228 140z"/>
<path style="fill:#384442; stroke:none;" d="M276 140L277 141L276 140z"/>
<path style="fill:#95a49f; stroke:none;" d="M277 140L276 142L278 142L277 140z"/>
<path style="fill:#5d6f71; stroke:none;" d="M281 140L282 141L281 140z"/>
<path style="fill:#9a8d7a; stroke:none;" d="M21 141L20 145L21 145L21 141z"/>
<path style="fill:#baad9c; stroke:none;" d="M23 141L24 145L25 145L23 141z"/>
<path style="fill:#847967; stroke:none;" d="M25 141L25 144L26 144L25 141z"/>
<path style="fill:#8a826f; stroke:none;" d="M30.6667 141.333L31.3333 141.667L30.6667 141.333z"/>
<path style="fill:#574f3a; stroke:none;" d="M49.6667 141.333L50.3333 141.667L49.6667 141.333z"/>
<path style="fill:#eaf9f4; stroke:none;" d="M147 144L151 143L147 144z"/>
<path style="fill:#99adae; stroke:none;" d="M168 141L169 146L170 146L171 141L168 141z"/>
<path style="fill:#e99ca4; stroke:none;" d="M185 141L185 144L186 144L185 141z"/>
<path style="fill:#6673a0; stroke:none;" d="M187 141L187 144L190 144L190 141L187 141z"/>
<path style="fill:#bd7487; stroke:none;" d="M191 144L194 141L191 144z"/>
<path style="fill:#8ea6aa; stroke:none;" d="M218.667 141.333L219.333 141.667L218.667 141.333z"/>
<path style="fill:#2b3b3b; stroke:none;" d="M278 141L278 142L281 142L278 141z"/>
<path style="fill:#867966; stroke:none;" d="M23 142L23 145L24 145L23 142z"/>
<path style="fill:#a09a84; stroke:none;" d="M40 145L41 145L42 143L43 143L47 145C49.009 141.154 40.9264 140.677 40 145z"/>
<path style="fill:#b7ac98; stroke:none;" d="M57 145L66 145C64.9763 140.223 58.9345 141.423 57 145z"/>
<path style="fill:#899d9c; stroke:none;" d="M96 145L99 145C98.3376 141.85 96.6624 141.85 96 145z"/>
<path style="fill:#819593; stroke:none;" d="M105 142L109 144L105 142z"/>
<path style="fill:#4b5e5c; stroke:none;" d="M119 142L119 145L120 145L119 142z"/>
<path style="fill:#b4c3bc; stroke:none;" d="M128 142L128 144L133 144L133 142L128 142z"/>
<path style="fill:#516460; stroke:none;" d="M133 142L133 144L135 144L135 142L133 142z"/>
<path style="fill:#3a4944; stroke:none;" d="M146.333 142.667L146.667 143.333L146.333 142.667z"/>
<path style="fill:#a7bab6; stroke:none;" d="M148 144L148 145C151.194 144.987 153.271 145.403 154 142L148 144z"/>
<path style="fill:#415556; stroke:none;" d="M161 142L160 144L162 144L161 142z"/>
<path style="fill:#9dadad; stroke:none;" d="M279 142L279 146L280 146L279 142z"/>
<path style="fill:#cec1ae; stroke:none;" d="M41 143L41 145L43 145L43 143L41 143z"/>
<path style="fill:#9a9994; stroke:none;" d="M85 143L83 146C82.6726 152.115 81.6416 154.343 89 154L85 143z"/>
<path style="fill:#7f9191; stroke:none;" d="M146.667 144.333L147.333 144.667L146.667 144.333z"/>
<path style="fill:#dca084; stroke:none;" d="M189 145L189 148L191 148L191 145L189 145z"/>
<path style="fill:#ca826a; stroke:none;" d="M185 146L185 149L188 149L188 146L185 146z"/>
<path style="fill:#525c5e; stroke:none;" d="M278.667 146.333L279.333 146.667L278.667 146.333z"/>
<path style="fill:#7e7468; stroke:none;" d="M82 147L81 152L82 152L84 147L82 147z"/>
<path style="fill:#60706f; stroke:none;" d="M86 147L88 153L89 153L86 147z"/>
<path style="fill:#969fa4; stroke:none;" d="M276 147C276.247 154.437 281.753 154.437 282 147L276 147z"/>
<path style="fill:#a9bdbb; stroke:none;" d="M89 148L89 152L90 152L89 148z"/>
<path style="fill:#5c6665; stroke:none;" d="M275 148L275 153L276 153L275 148z"/>
<path style="fill:#50585a; stroke:none;" d="M282 148L282 153L283 153L282 148z"/>
<path style="fill:#a0622f; stroke:none;" d="M186 150L186 151L194 150L186 150z"/>
<path style="fill:#fdf04a; stroke:none;" d="M186 152L190 155L186 152z"/>
<path style="fill:#8a8d86; stroke:none;" d="M276 153L279 155L279 162L86 162L86 155L85 155L85 163L284 163L284 162L280 162L282 153L276 153z"/>
<path style="fill:#3f413c; stroke:none;" d="M84 154L84 155L87 155L84 154z"/>
<path style="fill:#b3c8c9; stroke:none;" d="M131 155L131 160L132 160L133 155L131 155z"/>
<path style="fill:#657c82; stroke:none;" d="M184 155L184 159L185 159L184 155z"/>
<path style="fill:#c3d5d7; stroke:none;" d="M200 155L200 160L203 160L203 155L200 155z"/>
<path style="fill:#94a6a8; stroke:none;" d="M209 155L203 157C204.071 161.999 210.941 159.557 215 160C214.258 156.469 212.678 157.494 210 159L209 155z"/>
<path style="fill:#809495; stroke:none;" d="M217 155L216 160L217 155z"/>
<path style="fill:#a4b8b9; stroke:none;" d="M242 155L242 157L244 157L244 155L242 155z"/>
<path style="fill:#6f8485; stroke:none;" d="M127 156L127 160L128 160L127 156z"/>
<path style="fill:#3c5152; stroke:none;" d="M132 156L133 157L132 156z"/>
<path style="fill:#768b8c; stroke:none;" d="M144 156L143 160L144 160L144 156z"/>
<path style="fill:#687c7d; stroke:none;" d="M170 156L169 160L170 160L170 156z"/>
<path style="fill:#98b5c5; stroke:none;" d="M185 156L184 160L189 161L190 157L185 156z"/>
<path style="fill:#8aa39f; stroke:none;" d="M199 156L199 160L200 160L199 156z"/>
<path style="fill:#425758; stroke:none;" d="M122.333 157.667L122.667 158.333L122.333 157.667z"/>
<path style="fill:#54696a; stroke:none;" d="M133.333 157.667L133.667 158.333L133.333 157.667z"/>
<path style="fill:#829697; stroke:none;" d="M136 157L136 160L138 157L136 157z"/>
<path style="fill:#5b7071; stroke:none;" d="M139 157L139 160L140 160L139 157z"/>
<path style="fill:#576c6d; stroke:none;" d="M141 157L141 160L142 160L141 157z"/>
<path style="fill:#95a9aa; stroke:none;" d="M145 160L147 158L148 158L155 160C153.949 155.096 146.992 156.316 145 160z"/>
<path style="fill:#a0b4b5; stroke:none;" d="M158 160L159 160L160 158L161 158L161 160L162 160L163 160L168 159C166.061 155.634 158.887 155.861 158 160z"/>
<path style="fill:#809495; stroke:none;" d="M172 157C172.662 160.15 174.338 160.15 175 157L174 157L172 157z"/>
<path style="fill:#9cbab2; stroke:none;" d="M176 160L177 160L180 160L182 157C178.806 157.013 176.729 156.597 176 160z"/>
<path style="fill:#a1b5be; stroke:none;" d="M192 160L195 160C196.622 156.895 192.763 156.439 192 160z"/>
<path style="fill:#5e7273; stroke:none;" d="M211.333 157.667L211.667 158.333L211.333 157.667z"/>
<path style="fill:#6c7e80; stroke:none;" d="M219 157C219.662 160.15 221.338 160.15 222 157L221 157L219 157z"/>
<path style="fill:#5a6e6f; stroke:none;" d="M223.333 157.667L223.667 158.333L223.333 157.667z"/>
<path style="fill:#93a5a7; stroke:none;" d="M222 159L222 160L228 160L228 157L222 159z"/>
<path style="fill:#94a9aa; stroke:none;" d="M230 157L230 160L242 160C239.175 156.085 234.445 157.174 230 157z"/>
<path style="fill:#586c6d; stroke:none;" d="M242 157L242 160L243 160L242 157z"/>
<path style="fill:#9badaf; stroke:none;" d="M244 160L254 160C253.015 155.402 245.664 156.251 244 160z"/>
<path style="fill:#546869; stroke:none;" d="M163.333 158.667L163.667 159.333L163.333 158.667z"/>
<path style="fill:#f1fff1; stroke:none;" d="M187.333 158.667L187.667 159.333L187.333 158.667z"/>
<path style="fill:#58715c; stroke:none;" d="M194.333 158.667L194.667 159.333L194.333 158.667z"/>
<path style="fill:#97abac; stroke:none;" d="M122.667 159.333L123.333 159.667L122.667 159.333z"/>
<path style="fill:#738788; stroke:none;" d="M165 161L168 160L165 161z"/>
</svg>
