<?xml version="1.0" standalone="no"?>
<!DOCTYPE svg PUBLIC "-//W3C//DTD SVG 20010904//EN"
 "http://www.w3.org/TR/2001/REC-SVG-20010904/DTD/svg10.dtd">
<svg version="1.0" xmlns="http://www.w3.org/2000/svg"
 width="287.000000pt" height="202.000000pt" viewBox="0 0 287.000000 202.000000"
 preserveAspectRatio="xMidYMid meet">

<g transform="translate(0.000000,202.000000) scale(0.100000,-0.100000)"
fill="#000000" stroke="none">
<path d="M0 1285 c0 -404 3 -735 6 -735 19 0 52 25 140 107 47 44 55 48 100
47 27 0 56 -3 64 -7 8 -3 44 -12 80 -20 114 -26 181 -54 188 -79 2 -10 13 -20
24 -24 10 -3 24 -17 30 -30 6 -13 15 -24 20 -24 4 0 8 -4 8 -10 0 -11 -31 -2
-45 14 -21 23 -97 57 -157 71 -35 8 -80 18 -100 23 -20 5 -40 7 -43 4 -3 -4
-10 0 -15 8 -7 12 -10 11 -16 -5 -5 -12 -3 -20 5 -23 8 -3 21 -12 31 -22 9 -9
23 -17 31 -17 17 -1 63 -10 104 -19 16 -4 36 -13 43 -21 7 -7 22 -13 33 -13
10 0 19 -4 19 -10 0 -5 6 -10 13 -10 14 0 61 -49 54 -56 -2 -2 -23 6 -48 18
-24 12 -57 23 -74 24 -39 4 -80 11 -80 13 0 2 -26 5 -57 7 -38 4 -58 2 -58 -5
0 -6 -4 -11 -10 -11 -5 0 -10 7 -10 16 0 13 -3 14 -13 5 -8 -6 -17 -8 -20 -5
-7 7 -97 -36 -97 -47 0 -4 -8 -10 -19 -14 -25 -8 -61 -40 -61 -54 0 -6 -6 -11
-14 -11 -10 0 -12 7 -8 23 5 19 4 20 -11 9 -9 -8 -21 -11 -27 -7 -7 4 -10 -58
-10 -194 0 -172 2 -201 15 -201 8 0 15 6 15 13 0 8 3 7 10 -3 8 -13 11 -12 24
5 14 18 15 18 16 3 0 -10 7 -18 16 -18 11 0 13 6 9 19 -5 16 -1 19 22 18 15
-1 31 -6 35 -12 4 -5 8 0 8 13 0 13 6 22 15 22 8 0 15 -4 15 -9 0 -17 38 1 43
20 3 10 10 19 15 19 7 0 8 -11 2 -30 -10 -34 2 -39 36 -15 12 8 24 11 28 8 12
-12 6 -21 -19 -27 -14 -4 -25 -11 -25 -16 0 -15 37 -12 43 3 4 9 6 9 6 0 1 -7
12 -13 25 -13 19 0 26 7 31 30 4 17 11 28 16 24 5 -3 6 -16 3 -30 -4 -13 -2
-24 4 -24 11 0 32 53 32 81 0 11 5 19 11 19 6 0 9 6 6 13 -3 8 -1 20 4 28 9
15 12 -15 9 -101 l-1 -45 19 30 c10 17 26 36 35 44 10 7 17 18 17 23 0 5 7 16
15 24 13 14 15 13 15 -3 1 -12 5 -9 16 12 8 17 12 22 9 12 -3 -10 2 -20 10
-23 8 -4 12 -10 9 -15 -3 -5 -1 -9 5 -9 5 0 12 6 14 13 4 8 6 7 6 -4 1 -8 -4
-20 -9 -25 -8 -8 -6 -15 5 -24 8 -7 15 -21 15 -31 0 -11 5 -19 10 -19 6 0 10
7 10 15 0 8 8 20 18 26 14 9 18 21 15 46 -2 22 0 32 7 28 5 -3 10 -13 10 -21
0 -8 10 -33 23 -54 17 -31 28 -40 50 -40 29 0 34 9 15 28 -10 10 -10 17 0 32
6 11 12 27 12 35 0 9 9 15 23 15 20 -1 20 -2 5 -11 -22 -12 -24 -33 -3 -25 8
3 21 -4 30 -17 8 -12 15 -16 15 -9 0 6 7 12 15 12 8 0 15 -7 15 -15 0 -8 9
-15 20 -15 13 0 20 7 20 20 0 33 42 90 62 84 12 -4 19 2 24 20 5 21 12 26 38
25 26 -1 27 -2 9 -7 l-22 -7 20 -25 c10 -14 17 -18 13 -9 -7 21 7 31 26 18 13
-7 13 -10 1 -18 -8 -5 -9 -11 -3 -15 6 -3 13 -2 17 4 4 6 11 8 16 4 6 -3 7 4
3 19 -10 42 4 67 36 67 24 0 29 -4 28 -22 -1 -13 -1 -39 0 -58 2 -27 5 -31 12
-20 9 13 10 13 11 0 1 -8 6 12 10 45 13 91 14 94 35 109 16 13 17 18 7 35 -17
27 -16 36 1 21 8 -6 20 -28 27 -48 6 -20 16 -43 22 -50 6 -8 5 -17 -3 -27 -10
-12 -9 -15 7 -15 29 0 18 -49 -13 -60 -29 -11 -32 -24 -4 -15 11 4 20 2 20 -4
0 -6 10 -11 23 -12 21 -1 21 -1 -2 -8 -14 -4 -26 -12 -28 -18 -3 -7 4 -9 16
-6 12 3 21 1 21 -5 0 -6 -8 -13 -17 -15 -17 -4 -17 -5 0 -6 9 0 17 -8 17 -16
0 -18 26 -20 33 -2 4 9 6 9 6 0 1 -7 12 -13 25 -13 24 0 36 16 36 50 0 24 46
53 71 45 13 -4 19 -2 17 6 -5 24 29 21 36 -3 5 -19 8 -20 16 -8 11 17 53 23
47 6 -2 -6 -12 -10 -22 -8 -15 3 -15 1 3 -18 24 -26 18 -53 -9 -45 -14 5 -17
2 -13 -9 5 -13 24 -16 94 -16 61 0 90 4 93 13 4 9 8 8 16 -3 8 -11 11 -11 11
-2 0 7 8 21 18 32 20 22 63 24 55 3 -3 -8 -8 -11 -11 -9 -6 7 -32 -13 -32 -25
0 -5 11 -9 25 -9 14 0 25 4 25 9 0 5 7 11 14 14 10 4 13 1 9 -9 -3 -8 1 -14
11 -14 9 0 17 5 17 10 1 6 2 14 3 20 0 5 7 15 14 22 9 9 12 6 12 -20 0 -26 4
-32 21 -32 15 0 19 5 15 15 -7 19 -1 19 18 -1 15 -14 16 -14 16 3 1 17 1 17
14 1 15 -21 32 -23 39 -5 4 9 6 9 6 0 1 -18 61 -17 61 1 0 18 90 18 97 0 4
-11 59 -14 289 -14 l284 0 0 1010 0 1010 -1435 0 -1435 0 0 -735z m1415 275
c3 -5 1 -18 -4 -27 -11 -19 -11 -19 -15 15 -3 23 8 30 19 12z m-139 -16 c-5
-13 -3 -14 6 -7 7 6 24 9 38 8 14 -1 28 3 33 9 11 17 28 -15 22 -41 l-5 -22
35 20 c19 12 32 26 28 32 -3 6 -1 7 5 3 7 -4 12 -15 12 -24 1 -15 2 -15 15 2
13 17 15 17 21 3 3 -10 12 -17 20 -17 8 0 14 -2 14 -4 0 -2 3 -12 7 -22 4 -10
2 -15 -3 -11 -6 3 -11 -4 -11 -15 -2 -20 -2 -20 21 2 27 25 31 21 35 -35 3
-49 11 -60 11 -17 0 18 5 32 11 32 5 0 8 -4 5 -9 -12 -18 13 -60 39 -67 27 -7
34 -24 10 -24 -28 0 -17 -46 20 -77 19 -17 32 -33 29 -36 -4 -3 -13 0 -21 8
-17 18 -47 20 -37 3 5 -8 -9 -9 -54 -5 -65 7 -78 3 -39 -13 l22 -9 -22 0 c-12
-1 -25 -6 -28 -11 -4 -6 -3 -10 2 -9 29 5 22 -5 -12 -16 -27 -9 -33 -13 -18
-14 12 -1 25 -5 28 -11 3 -5 11 -10 16 -10 6 0 7 5 4 10 -3 6 -1 10 4 10 6 0
11 -4 11 -9 0 -6 8 -10 18 -10 47 1 151 -35 139 -47 -3 -4 -39 1 -79 9 -40 9
-110 18 -155 21 l-82 6 6 -35 c5 -34 -9 -50 -20 -22 -3 7 -6 4 -6 -6 -1 -10 5
-25 13 -32 16 -17 19 -92 4 -101 -6 -4 -14 0 -19 7 -5 8 -9 9 -9 3 0 -10 -15
-11 -54 -5 -4 0 -6 8 -2 16 3 8 1 15 -4 15 -9 0 -14 -14 -11 -32 0 -5 -3 -8
-9 -8 -5 0 -10 -7 -10 -16 0 -11 -6 -13 -19 -9 -16 5 -18 2 -14 -14 5 -19 58
-73 65 -66 2 2 9 -5 16 -15 10 -17 10 -20 -7 -20 -11 0 -33 -11 -50 -25 -23
-20 -36 -24 -57 -19 -18 5 -25 3 -20 -4 3 -6 2 -13 -3 -16 -5 -4 -12 -2 -16 4
-3 5 -15 10 -25 10 -13 0 -22 9 -26 26 -4 16 -12 23 -20 20 -8 -3 -19 4 -25
16 -9 17 -8 24 5 34 22 16 3 29 -36 25 -21 -2 -28 2 -29 16 -6 139 -3 150 44
144 12 -2 17 5 17 22 0 19 6 26 26 30 25 4 26 4 21 -48 -2 -29 -8 -58 -12 -65
-11 -17 15 -31 37 -19 15 8 16 14 7 30 -6 11 -8 27 -5 35 4 9 2 12 -5 8 -8 -4
-9 1 -3 17 4 13 7 30 7 37 0 6 7 12 16 13 60 4 93 10 146 29 l60 20 -60 -5
c-119 -11 -242 -37 -345 -75 -105 -40 -139 -46 -79 -14 18 9 39 23 47 31 8 8
27 17 43 20 16 3 26 9 24 14 -3 4 -15 6 -28 3 -58 -12 -120 -24 -126 -24 -3 0
3 7 13 15 19 14 19 15 2 15 -15 0 -16 3 -6 15 7 8 18 15 24 15 6 0 20 8 31 16
19 15 18 16 -16 10 -39 -7 -58 11 -36 33 8 8 6 11 -8 11 -16 0 -15 4 10 30 16
17 34 30 39 30 6 0 4 -5 -4 -10 -13 -8 -13 -10 1 -10 9 0 22 7 29 15 7 8 9 15
5 15 -4 0 -2 7 5 15 10 12 16 13 26 4 17 -14 17 -9 4 25 -6 18 -6 26 1 26 6 0
9 7 5 15 -3 8 -1 15 3 15 5 0 11 -6 14 -12 2 -7 7 2 12 21 4 19 15 35 25 38
10 3 23 15 30 28 7 13 25 27 41 30 16 4 26 12 23 18 -3 8 13 13 48 14 29 2 54
7 56 13 2 5 12 10 22 10 10 0 22 5 25 10 10 16 18 11 11 -6z m-226 -493 c0 -9
-41 -23 -49 -16 -3 4 28 20 47 24 1 1 2 -3 2 -8z m-715 -259 c0 -12 -4 -23
-10 -24 -5 -2 -10 9 -10 25 -1 15 4 26 10 24 5 -2 10 -13 10 -25z m-35 10 c0
-13 -12 -22 -22 -16 -10 6 -1 24 13 24 5 0 9 -4 9 -8z m1070 -13 c0 -5 -4 -9
-10 -9 -5 0 -10 7 -10 16 0 8 5 12 10 9 6 -3 10 -10 10 -16z m-323 -11 c-3 -8
-6 -5 -6 6 -1 11 2 17 5 13 3 -3 4 -12 1 -19z m-647 -3 c6 4 17 1 25 -5 11 -9
15 -9 15 -1 0 6 5 11 10 11 6 0 10 -7 10 -15 0 -10 10 -14 37 -13 20 1 39 -4
41 -10 2 -7 13 -12 25 -12 24 0 57 -27 57 -47 0 -7 5 -13 12 -13 6 0 9 -2 7
-4 -6 -6 -198 61 -215 75 -11 9 -14 8 -14 -2 0 -12 -2 -12 -9 0 -5 7 -14 11
-19 7 -12 -7 -35 28 -25 38 3 3 12 1 19 -5 7 -6 18 -8 24 -4z m700 -14 c0 -6
-4 -13 -10 -16 -5 -3 -10 1 -10 9 0 9 5 16 10 16 6 0 10 -4 10 -9z m74 -66
c14 -19 25 -40 24 -46 -2 -7 6 -15 17 -17 17 -4 18 -2 6 12 -7 9 -10 16 -5 16
5 0 2 5 -6 11 -12 8 -10 9 10 7 14 -2 24 -9 23 -15 -2 -7 4 -10 12 -7 9 4 15
0 15 -9 0 -20 22 -28 95 -36 53 -5 60 -9 63 -29 6 -42 -22 -60 -89 -57 -40 1
-64 7 -70 16 -8 12 -10 12 -19 -1 -9 -13 -12 -12 -25 4 -8 10 -12 23 -9 27 2
4 -4 6 -15 4 -14 -2 -18 1 -14 15 3 10 0 21 -6 24 -6 4 -11 20 -11 36 0 28
-22 60 -41 60 -6 0 -7 5 -4 10 10 17 22 11 49 -25z m-68 -2 c-10 -10 -19 5
-10 18 6 11 8 11 12 0 2 -7 1 -15 -2 -18z m239 17 c19 -8 19 -9 -2 -9 -12 -1
-25 -6 -28 -11 -5 -8 -11 -8 -19 -1 -7 6 -16 8 -19 4 -4 -3 -7 1 -7 10 0 19
40 22 75 7z m75 0 c0 -5 -10 -10 -22 -9 -22 0 -22 1 -3 9 11 5 21 9 23 9 1 1
2 -3 2 -9z m-180 -10 c0 -5 -8 -10 -17 -10 -15 0 -16 2 -3 10 19 12 20 12 20
0z m-555 -110 c3 -5 1 -10 -4 -10 -6 0 -11 5 -11 10 0 6 2 10 4 10 3 0 8 -4
11 -10z m795 0 c0 -5 -4 -10 -10 -10 -5 0 -10 5 -10 10 0 6 5 10 10 10 6 0 10
-4 10 -10z m-420 -41 c0 -6 -4 -7 -10 -4 -5 3 -10 11 -10 16 0 6 5 7 10 4 6
-3 10 -11 10 -16z m30 1 c0 -5 -2 -10 -4 -10 -3 0 -8 5 -11 10 -3 6 -1 10 4
10 6 0 11 -4 11 -10z m-8 -52 c-9 -9 -12 -7 -12 12 0 19 3 21 12 12 9 -9 9
-15 0 -24z m31 -3 c-3 -9 -8 -14 -10 -11 -3 3 -2 9 2 15 9 16 15 13 8 -4z m87
-85 c0 -10 7 -20 15 -24 9 -3 15 0 15 9 0 8 4 15 8 15 13 0 13 -62 0 -77 -8
-10 -7 -12 6 -7 9 3 16 10 16 15 0 5 7 9 16 9 13 0 14 -3 4 -15 -6 -8 -9 -19
-5 -25 13 -21 -5 -47 -33 -48 -15 0 -41 -3 -59 -6 l-31 -5 -4 51 c-2 43 0 52
17 59 19 8 19 8 -2 15 -25 7 -32 49 -10 57 6 2 9 8 5 12 -8 8 -38 -18 -38 -33
0 -6 -8 -13 -17 -17 -15 -5 -16 -4 -5 6 6 7 12 21 12 30 0 9 10 20 23 24 13 4
17 8 10 12 -7 2 -13 11 -13 20 0 8 14 0 35 -23 19 -20 35 -45 35 -54z m-1073
-5 c0 -8 -4 -15 -9 -15 -4 0 -8 7 -8 15 0 8 4 15 8 15 5 0 9 -7 9 -15z m943
-30 c0 -8 -4 -15 -10 -15 -5 0 -10 7 -10 15 0 8 5 15 10 15 6 0 10 -7 10 -15z
m250 -25 c0 -5 -2 -10 -4 -10 -3 0 -8 5 -11 10 -3 6 -1 10 4 10 6 0 11 -4 11
-10z m-160 -150 c0 -5 -2 -10 -4 -10 -3 0 -8 5 -11 10 -3 6 -1 10 4 10 6 0 11
-4 11 -10z m-53 -6 c-3 -3 -12 -4 -19 -1 -8 3 -5 6 6 6 11 1 17 -2 13 -5z m34
-11 c13 -16 12 -17 -3 -4 -17 13 -22 21 -14 21 2 0 10 -8 17 -17z m-281 -24
c0 -5 -4 -9 -10 -9 -5 0 -10 7 -10 16 0 8 5 12 10 9 6 -3 10 -10 10 -16z m180
1 c0 -5 -4 -10 -10 -10 -5 0 -10 5 -10 10 0 6 5 10 10 10 6 0 10 -4 10 -10z
m-140 -63 c0 -10 -5 -17 -12 -15 -13 5 -20 37 -11 51 7 12 23 -13 23 -36z
m-105 -7 c-5 -8 -11 -8 -17 -2 -6 6 -7 16 -3 22 5 8 11 8 17 2 6 -6 7 -16 3
-22z m1195 -9 c0 -6 -4 -13 -10 -16 -5 -3 -10 1 -10 9 0 9 5 16 10 16 6 0 10
-4 10 -9z m98 -26 c-3 -3 -9 2 -12 12 -6 14 -5 15 5 6 7 -7 10 -15 7 -18z
m176 4 c-3 -5 -10 -7 -15 -3 -5 3 -7 10 -3 15 3 5 10 7 15 3 5 -3 7 -10 3 -15z
m-817 -14 c-7 -17 -37 -21 -37 -5 0 6 7 10 15 10 8 0 15 5 15 12 0 6 3 9 6 5
4 -3 4 -13 1 -22z m715 3 c-6 -6 -15 -8 -19 -4 -4 4 -1 11 7 16 19 12 27 3 12
-12z m-1375 -20 c-3 -7 -5 -2 -5 12 0 14 2 19 5 13 2 -7 2 -19 0 -25z"/>
<path d="M1542 1415 c0 -16 2 -22 5 -12 2 9 2 23 0 30 -3 6 -5 -1 -5 -18z"/>
<path d="M1490 1396 c0 -9 5 -16 10 -16 6 0 10 4 10 9 0 6 -4 13 -10 16 -5 3
-10 -1 -10 -9z"/>
<path d="M1418 1393 c7 -3 16 -2 19 1 4 3 -2 6 -13 5 -11 0 -14 -3 -6 -6z"/>
<path d="M1282 1066 c-1 -14 -3 -29 -4 -33 -3 -13 13 -53 21 -53 11 0 6 103
-5 107 -5 2 -11 -8 -12 -21z"/>
<path d="M1042 990 c0 -14 2 -19 5 -12 2 6 2 18 0 25 -3 6 -5 1 -5 -13z"/>
<path d="M1020 921 c0 -25 6 -27 13 -6 4 8 2 17 -3 20 -6 4 -10 -3 -10 -14z"/>
<path d="M1020 880 c0 -5 5 -10 10 -10 6 0 10 5 10 10 0 6 -4 10 -10 10 -5 0
-10 -4 -10 -10z"/>
<path d="M1135 760 c4 -6 11 -8 16 -5 14 9 11 15 -7 15 -8 0 -12 -5 -9 -10z"/>
<path d="M1307 239 c-7 -28 -7 -28 16 -20 15 6 16 9 4 25 -13 18 -14 18 -20
-5z"/>
<path d="M1315 200 c-3 -5 -1 -10 4 -10 6 0 11 5 11 10 0 6 -2 10 -4 10 -3 0
-8 -4 -11 -10z"/>
<path d="M1330 162 c0 -12 19 -26 26 -19 2 2 -2 10 -11 17 -9 8 -15 8 -15 2z"/>
<path d="M1003 95 c-6 -14 -7 -25 -3 -25 5 0 10 5 12 10 2 6 13 12 25 13 12 0
19 5 17 9 -3 5 -10 6 -15 3 -5 -4 -9 -1 -9 4 0 19 -15 11 -27 -14z"/>
<path d="M1191 64 c0 -11 3 -14 6 -6 3 7 2 16 -1 19 -3 4 -6 -2 -5 -13z"/>
<path d="M1510 61 c0 -6 5 -13 10 -16 6 -3 10 1 10 9 0 9 -4 16 -10 16 -5 0
-10 -4 -10 -9z"/>
<path d="M850 50 c0 -5 5 -10 10 -10 6 0 10 5 10 10 0 6 -4 10 -10 10 -5 0
-10 -4 -10 -10z"/>
<path d="M1215 50 c-3 -5 -1 -10 4 -10 6 0 11 5 11 10 0 6 -2 10 -4 10 -3 0
-8 -4 -11 -10z"/>
<path d="M1267 53 c-5 -7 1 -21 13 -33 25 -25 30 -25 30 1 0 14 -5 19 -14 16
-9 -4 -16 1 -18 11 -3 12 -6 14 -11 5z"/>
<path d="M1327 39 c6 -6 9 -19 6 -28 -4 -13 -2 -13 7 2 12 19 6 37 -13 37 -8
0 -8 -3 0 -11z"/>
</g>
</svg>
