<?xml version="1.0" standalone="no"?>
<!DOCTYPE svg PUBLIC "-//W3C//DTD SVG 20010904//EN"
 "http://www.w3.org/TR/2001/REC-SVG-20010904/DTD/svg10.dtd">
<svg version="1.0" xmlns="http://www.w3.org/2000/svg"
 width="450.000000pt" height="630.000000pt" viewBox="0 0 450.000000 630.000000"
 preserveAspectRatio="xMidYMid meet">

<g transform="translate(0.000000,630.000000) scale(0.100000,-0.100000)"
fill="#000000" stroke="none">
<path d="M16 6293 c-3 -3 -6 -1419 -6 -3145 l0 -3138 2245 0 2245 0 0 3145 0
3144 -2239 0 c-1231 0 -2241 -3 -2245 -6z m3831 -155 c-3 -7 -5 -2 -5 12 0 14
2 19 5 13 2 -7 2 -19 0 -25z m-794 3 c-3 -10 0 -22 6 -25 6 -4 -3 -18 -22 -36
-17 -15 -33 -27 -35 -25 -6 5 40 105 48 105 5 0 6 -8 3 -19z m-1746 -46 c-3
-31 -15 -71 -27 -90 -21 -34 -22 -34 -44 -17 l-23 17 30 55 c30 55 56 90 65
90 3 0 2 -25 -1 -55z m1643 21 c0 -13 -3 -37 -6 -54 -6 -27 -9 -30 -25 -21
-24 12 -24 32 -2 70 21 35 33 37 33 5z m-1895 -7 c159 -15 188 -32 149 -87
-19 -28 -44 -17 -67 30 -9 18 -17 27 -17 20 0 -20 25 -65 49 -86 38 -35 27
-44 -41 -34 -35 5 -67 15 -73 21 -6 7 -50 13 -110 16 -96 3 -101 4 -132 34
-38 36 -39 38 -15 67 18 23 73 41 107 35 11 -2 79 -9 150 -16z m650 6 c33 -9
77 -28 99 -43 43 -30 65 -70 44 -84 -10 -6 -10 -8 1 -8 11 0 12 -34 9 -182 -3
-167 -5 -187 -27 -230 -12 -27 -35 -57 -49 -69 l-27 -20 -17 21 c-25 30 -23
42 12 75 17 16 30 35 30 43 0 7 11 32 25 56 19 33 25 58 26 116 2 44 -3 85
-10 98 -7 13 -10 36 -6 53 7 30 -8 41 -19 14 -4 -12 -11 -12 -48 5 -31 14 -66
20 -123 20 l-80 1 -28 60 c-16 34 -27 63 -24 65 6 7 87 22 122 23 17 1 58 -6
90 -14z m474 -22 c-13 -26 -19 -58 -19 -104 0 -52 -4 -68 -16 -73 -32 -12 -43
-5 -60 39 -9 25 -18 44 -20 42 -8 -8 21 -89 33 -94 8 -3 19 -15 23 -27 9 -21
9 -21 9 2 1 12 3 22 5 22 2 0 11 3 20 6 24 9 21 -48 -4 -71 -19 -17 -20 -17
-21 1 0 17 -1 17 -9 -3 -5 -12 -17 -26 -27 -31 -16 -9 -20 -3 -35 51 -20 73
-22 110 -7 140 11 22 128 136 140 137 4 0 -2 -17 -12 -37z m401 17 c0 -5 -4
-10 -9 -10 -6 0 -13 5 -16 10 -3 6 1 10 9 10 9 0 16 -4 16 -10z m1260 0 c0 -5
-7 -7 -15 -4 -11 4 -16 -5 -21 -35 -4 -27 -15 -49 -32 -61 -14 -11 -23 -23
-20 -25 3 -3 19 9 37 27 34 35 40 32 15 -7 -15 -22 -88 -55 -98 -44 -10 10
-15 66 -10 97 5 26 11 32 33 32 14 1 40 7 56 15 36 16 55 18 55 5z m-1247 -9
c36 12 41 11 53 -6 22 -30 17 -45 -14 -45 -37 0 -42 -6 -32 -41 7 -25 6 -29
-11 -29 -12 0 -19 7 -19 19 0 11 -6 26 -13 33 -8 7 -12 19 -9 27 3 10 0 11
-16 2 -26 -14 -62 -14 -62 -1 0 6 9 19 20 30 17 17 24 18 42 9 16 -9 30 -8 61
2z m-1100 -41 c23 -49 16 -73 -29 -99 -19 -11 -39 -32 -44 -46 -15 -39 -12
-190 4 -228 15 -38 66 -84 102 -93 13 -3 24 -10 24 -14 0 -11 -22 -27 -44 -31
-29 -6 -43 -35 -28 -59 16 -27 4 -25 -41 5 -20 14 -40 38 -44 53 -10 35 -10
448 0 483 6 22 59 69 77 69 3 0 13 -18 23 -40z m1230 30 c26 0 21 -33 -12 -64
-38 -37 -56 -27 -36 21 18 44 18 44 0 37 -8 -4 -15 -1 -15 6 0 8 8 10 23 6 12
-3 30 -6 40 -6z m434 -7 c3 -7 -5 -20 -17 -30 -12 -10 -28 -30 -36 -45 -18
-35 -64 -38 -95 -7 l-21 21 34 29 c50 43 126 61 135 32z m447 7 c34 -13 33
-29 -4 -41 -16 -6 -30 -14 -30 -17 -1 -20 -32 -42 -66 -48 -21 -3 -44 -10 -51
-16 -15 -12 -43 -94 -43 -127 0 -31 -9 -45 -32 -54 -16 -5 -18 0 -18 41 0 26
7 56 15 66 8 11 15 28 15 38 0 26 44 121 63 137 32 26 110 37 151 21z m-269
-10 c3 -6 -5 -14 -18 -19 -14 -5 -27 -20 -30 -34 -8 -30 -45 -47 -102 -47 -52
0 -56 10 -25 70 l20 40 75 0 c40 0 77 -5 80 -10z m349 -12 c-4 -13 -8 -84 -9
-158 -2 -130 -3 -135 -24 -138 -22 -4 -22 -3 -17 115 3 65 6 137 7 161 1 38 4
42 26 42 22 0 24 -3 17 -22z m146 7 c0 -8 -4 -15 -10 -15 -5 0 -7 7 -4 15 4 8
8 15 10 15 2 0 4 -7 4 -15z m-977 -1 c3 -4 -1 -17 -9 -29 -14 -22 -31 -28
-113 -42 l-33 -5 38 40 c31 32 47 41 75 41 20 1 38 -2 42 -5z m49 -81 c12 -14
1 -17 -26 -7 -19 7 -21 45 -3 63 10 10 13 7 15 -16 2 -15 8 -34 14 -40z m476
42 c17 -37 15 -49 -12 -74 l-23 -22 -38 25 c-21 14 -33 26 -27 26 7 0 15 12
18 26 6 23 31 42 60 43 6 1 16 -10 22 -24z m252 -12 c0 -35 -16 -45 -28 -19
-8 19 -8 26 1 30 22 8 27 6 27 -11z m-710 -9 c0 -8 -4 -12 -10 -9 -5 3 -10 10
-10 16 0 5 5 9 10 9 6 0 10 -7 10 -16z m-428 -11 c21 -19 23 -34 6 -51 -14
-14 -37 13 -38 46 0 26 7 28 32 5z m61 11 c8 -8 -3 -34 -14 -34 -5 0 -9 9 -9
20 0 19 11 26 23 14z m107 -9 c6 -8 8 -20 4 -26 -5 -9 -2 -10 12 -5 10 4 21 8
24 9 6 2 10 -8 10 -28 0 -14 -3 -14 -30 0 -16 8 -36 15 -45 15 -9 0 -15 9 -15
25 0 28 21 33 40 10z m160 -25 c0 -33 -7 -37 -35 -16 -23 16 -14 46 15 46 16
0 20 -7 20 -30z m-2011 11 c11 -7 11 -15 2 -43 -6 -19 -12 -85 -12 -146 0 -90
-3 -112 -15 -112 -12 0 -14 27 -14 155 0 159 3 169 39 146z m716 -1 c3 -5 1
-10 -4 -10 -6 0 -11 5 -11 10 0 6 2 10 4 10 3 0 8 -4 11 -10z m-295 -15 c21
-25 2 -31 -20 -7 -15 16 -17 22 -7 22 8 0 20 -7 27 -15z m1540 -27 c0 -22 -28
-24 -36 -3 -9 21 16 51 27 33 5 -7 9 -21 9 -30z m100 2 c-18 -11 -24 -6 -16
16 5 14 9 15 19 5 9 -9 9 -14 -3 -21z m250 -15 c0 -24 -5 -35 -14 -35 -24 0
-28 18 -10 45 21 33 24 32 24 -10z m-650 -7 c0 -7 -5 -20 -10 -28 -8 -12 -10
-9 -10 13 0 15 5 27 10 27 6 0 10 -6 10 -12z m891 -31 c-8 -8 -11 -7 -11 4 0
20 13 34 18 19 3 -7 -1 -17 -7 -23z m-889 -49 c-2 -21 -10 -38 -17 -38 -14 0
-9 47 8 68 14 17 15 13 9 -30z m628 -23 c0 -19 -28 -83 -40 -90 -11 -7 -13 92
-3 129 5 19 6 19 24 -3 11 -13 19 -29 19 -36z m35 -59 l7 -47 -26 12 c-18 9
-25 17 -20 28 3 9 8 34 12 55 4 33 7 36 13 19 4 -11 11 -41 14 -67z m-988 -39
c-24 -52 -83 -125 -93 -114 -3 3 0 16 7 29 7 12 15 50 18 83 6 58 7 61 46 81
l40 21 3 -24 c2 -13 -7 -47 -21 -76z m748 64 c-3 -6 -11 -8 -17 -5 -6 4 -5 9
3 15 16 10 23 4 14 -10z m-1922 2 c-7 -2 -21 -2 -30 0 -10 3 -4 5 12 5 17 0
24 -2 18 -5z m82 -9 c0 -5 -13 -11 -29 -12 -26 -3 -28 -2 -17 11 13 16 46 16
46 1z m119 4 c27 3 37 1 32 -7 -8 -12 -93 -15 -120 -5 -27 10 -8 23 22 15 15
-4 44 -6 66 -3z m1675 -6 c8 -15 5 -17 -30 -14 -41 4 -52 17 -21 25 33 9 41 7
51 -11z m-1559 -4 c0 -3 -15 -6 -34 -5 -19 0 -33 4 -30 9 6 9 64 6 64 -4z
m1183 5 c-7 -2 -21 -2 -30 0 -10 3 -4 5 12 5 17 0 24 -2 18 -5z m90 0 c-7 -2
-19 -2 -25 0 -7 3 -2 5 12 5 14 0 19 -2 13 -5z m145 0 c-21 -2 -57 -2 -80 0
-24 2 -7 4 37 4 44 0 63 -2 43 -4z m-1784 -24 c-33 -13 -48 -11 -35 5 7 8 21
12 33 8 21 -5 21 -6 2 -13z m1546 -18 c0 -10 -6 -21 -14 -24 -9 -4 -13 0 -11
11 2 9 4 20 4 25 2 16 21 6 21 -12z m926 -24 c-3 -16 -6 -36 -6 -43 0 -8 -6
-11 -15 -8 -10 4 -15 20 -15 49 0 39 2 43 21 38 17 -5 20 -11 15 -36z m284 8
c0 -14 5 -25 11 -25 7 0 9 -10 5 -26 -5 -17 -3 -23 4 -19 5 3 10 -1 10 -10 0
-9 7 -23 15 -31 25 -25 18 -63 -17 -92 -18 -15 -36 -26 -41 -24 -5 1 -6 -2 -2
-8 3 -5 -1 -13 -10 -16 -9 -4 -14 -13 -11 -20 3 -8 1 -14 -4 -14 -5 0 -8 21
-7 48 2 40 5 47 25 50 27 4 29 22 2 22 -17 0 -20 7 -21 53 0 28 -2 62 -3 75
-3 24 19 62 35 62 5 0 9 -11 9 -25z m-2402 -17 c-2 -6 -10 -14 -16 -16 -7 -2
-10 2 -6 12 7 18 28 22 22 4z m1851 -2 c6 -7 9 -22 5 -32 -3 -11 -8 -26 -11
-34 -3 -9 -10 0 -18 24 -18 52 -4 76 24 42z m-652 -36 c3 -21 -10 -39 -28 -40
-5 0 -5 54 0 68 4 13 25 -8 28 -28z m453 -37 c-16 -48 -28 -63 -46 -56 -20 8
-18 18 19 66 36 49 44 45 27 -10z m164 24 c8 -22 6 -31 -8 -45 -18 -16 -18
-15 -13 25 3 23 1 44 -4 47 -5 2 -4 3 3 2 7 -1 17 -15 22 -29z m-1824 1 c0
-16 -3 -19 -11 -11 -6 6 -8 16 -5 22 11 17 16 13 16 -11z m-470 -3 c-7 -8 -16
-15 -21 -15 -5 0 -9 7 -9 15 0 9 9 15 21 15 18 0 19 -2 9 -15z m2578 -7 c7 -7
12 -25 12 -41 0 -22 -4 -28 -16 -23 -9 3 -18 6 -20 6 -2 0 -4 16 -4 35 0 37 8
43 28 23z m-2115 -38 c4 -17 0 -20 -32 -20 -51 0 -57 10 -24 36 30 24 47 19
56 -16z m-422 9 c19 -10 19 -11 -6 -40 -14 -17 -25 -41 -25 -55 0 -28 -8 -30
-26 -6 -19 24 -17 72 3 94 19 21 27 22 54 7z m923 -11 c-13 -23 -37 -48 -46
-48 -16 0 -7 29 14 44 27 19 42 21 32 4z m200 -48 c-6 -6 -27 -13 -48 -17
l-37 -6 13 29 c23 54 29 58 57 30 18 -18 22 -29 15 -36z m558 40 c11 0 19 -8
20 -22 3 -45 4 -53 12 -75 4 -13 14 -23 21 -23 11 0 13 11 8 52 l-6 51 48 -6
c26 -4 68 -7 93 -7 44 0 45 0 27 -20 -9 -10 -19 -34 -20 -52 -2 -18 -3 -36 -4
-40 -2 -14 -110 -8 -171 9 -63 17 -68 23 -58 78 2 14 -3 20 -19 21 -13 1 -26
2 -30 3 -3 0 4 12 17 26 16 17 27 22 34 15 5 -5 18 -10 28 -10z m-212 0 c0
-15 -43 -100 -51 -100 -11 0 -20 50 -14 71 9 26 65 51 65 29z m60 -20 c10 -39
-10 -98 -39 -119 -22 -15 -30 -16 -55 -6 l-29 12 21 19 c12 10 22 21 22 25 0
4 9 28 21 53 23 52 49 59 59 16z m-1160 -7 c39 -26 40 -28 19 -35 -23 -9 -74
-58 -60 -58 4 0 16 9 26 20 10 11 23 20 28 20 18 0 -28 -43 -61 -57 -36 -15
-72 -10 -72 11 0 21 -26 49 -39 42 -9 -6 -7 -16 7 -40 l19 -32 -68 -3 c-79 -3
-149 13 -149 34 0 17 0 17 58 6 23 -5 44 -5 47 -2 2 4 -10 8 -27 9 -50 4 -69
19 -66 53 1 17 7 33 13 37 5 4 51 6 100 4 50 -1 108 2 130 7 22 5 43 9 47 10
3 0 25 -11 48 -26z m825 17 c-3 -5 -11 -10 -16 -10 -6 0 -7 5 -4 10 3 6 11 10
16 10 6 0 7 -4 4 -10z m807 -43 c-10 -12 -22 -30 -26 -40 -8 -26 -32 -15 -28
13 1 12 -3 29 -9 36 -9 11 -7 15 7 20 11 3 28 9 39 14 30 11 42 -16 17 -43z
m261 31 c-4 -7 -8 -17 -8 -22 0 -13 -33 -31 -41 -23 -4 4 4 18 17 31 26 26 45
34 32 14z m-2243 -28 c0 -10 -7 -20 -15 -24 -16 -6 -20 10 -9 38 8 20 24 11
24 -14z m845 -6 c6 -17 16 -38 23 -47 19 -22 5 -40 -24 -33 -14 4 -24 2 -24
-4 0 -5 -5 -10 -11 -10 -5 0 -7 5 -4 10 11 18 -25 23 -44 6 -18 -16 -58 -20
-97 -10 -20 5 -21 9 -12 42 5 21 19 47 31 60 19 20 29 22 87 20 63 -3 65 -4
75 -34z m465 24 c0 -7 -20 -22 -45 -33 -46 -20 -54 -37 -19 -44 23 -4 44 -20
44 -34 0 -6 -39 -8 -109 -5 -92 5 -115 9 -147 29 -22 13 -32 25 -25 27 7 2 17
-2 22 -9 6 -11 9 -10 14 3 4 10 27 28 51 42 37 20 58 25 120 25 42 0 79 2 82
5 8 9 12 7 12 -6z m58 -20 c3 -22 0 -26 -16 -21 -11 3 -22 16 -25 29 -4 21 -1
25 17 22 14 -2 22 -11 24 -30z m232 -24 c0 -17 -15 -25 -34 -18 -19 7 -21 25
-4 42 13 13 38 -2 38 -24z m315 16 c3 -5 1 -10 -4 -10 -6 0 -11 5 -11 10 0 6
2 10 4 10 3 0 8 -4 11 -10z m94 -26 c-24 -26 -39 -31 -39 -12 0 19 31 47 46
41 12 -4 11 -10 -7 -29z m321 11 c0 -8 -4 -16 -9 -19 -12 -8 -34 21 -27 33 9
14 36 2 36 -14z m170 10 c0 -8 -4 -15 -10 -15 -5 0 -10 7 -10 15 0 8 5 15 10
15 6 0 10 -7 10 -15z m-1190 -5 c0 -5 11 -12 25 -16 35 -9 31 -43 -7 -57 -28
-10 -71 58 -46 75 18 11 28 10 28 -2z m1234 -14 c3 -14 3 -32 -1 -42 -4 -12
-3 -15 5 -10 7 4 12 2 12 -4 0 -7 -7 -9 -16 -6 -9 3 -21 6 -28 6 -13 0 -14 21
-2 58 10 29 22 28 30 -2z m-368 -32 c-22 -16 -46 -19 -46 -5 0 5 10 15 23 24
29 20 51 2 23 -19z m-556 16 c0 -5 -5 -10 -11 -10 -5 0 -7 5 -4 10 3 6 8 10
11 10 2 0 4 -4 4 -10z m298 -22 c-2 -15 -11 -24 -25 -26 -27 -4 -29 5 -6 30
22 24 35 23 31 -4z m197 -18 c-3 -5 -21 -10 -38 -9 -31 1 -31 1 -7 9 36 11 52
11 45 0z m-1235 -22 c0 -7 -4 -19 -9 -26 -7 -11 -10 -10 -15 3 -3 9 -4 21 0
26 8 13 24 11 24 -3z m48 -1 c10 -12 6 -57 -5 -57 -15 0 -33 33 -28 50 7 23
18 25 33 7z m552 -6 c0 -12 -20 -25 -27 -18 -7 7 6 27 18 27 5 0 9 -4 9 -9z
m730 -15 c0 -23 -16 -36 -46 -36 -20 0 -17 37 4 49 28 17 42 13 42 -13z
m-1413 8 c-3 -3 -12 -4 -19 -1 -8 3 -5 6 6 6 11 1 17 -2 13 -5z m973 -13 c0
-5 9 -11 20 -14 25 -7 26 -23 0 -37 -16 -9 -22 -6 -34 19 -15 27 -13 41 6 41
4 0 8 -4 8 -9z m780 -1 c0 -5 -12 -10 -27 -9 -25 0 -26 1 -8 9 27 12 35 12 35
0z m-1706 -9 c3 -5 -1 -11 -9 -15 -9 -3 -15 0 -15 9 0 16 16 20 24 6z m709
-36 c14 -29 14 -35 2 -45 -8 -7 -23 -9 -32 -5 -16 6 -15 8 7 27 14 11 18 18 9
15 -22 -7 -38 10 -32 33 7 26 27 15 46 -25z m413 18 c-10 -10 -19 5 -10 18 6
11 8 11 12 0 2 -7 1 -15 -2 -18z m495 -6 c-8 -8 -11 -7 -11 4 0 20 13 34 18
19 3 -7 -1 -17 -7 -23z m-401 -41 c-8 -8 -13 -7 -19 3 -7 11 -9 11 -14 0 -3
-8 -6 0 -6 18 -1 25 3 32 22 35 17 2 23 -3 25 -21 2 -13 -1 -28 -8 -35z
m-1300 44 c0 -5 -4 -10 -10 -10 -5 0 -10 5 -10 10 0 6 5 10 10 10 6 0 10 -4
10 -10z m900 -6 c0 -8 -5 -12 -10 -9 -6 4 -8 11 -5 16 9 14 15 11 15 -7z m660
-4 c0 -5 -4 -10 -10 -10 -5 0 -10 5 -10 10 0 6 5 10 10 10 6 0 10 -4 10 -10z
m-1467 -44 c37 -33 37 -34 19 -56 -23 -29 -38 -21 -46 26 -4 19 -10 42 -13 50
-8 21 -1 17 40 -20z m607 24 c0 -5 -5 -10 -11 -10 -5 0 -7 5 -4 10 3 6 8 10
11 10 2 0 4 -4 4 -10z m365 -11 c7 -11 -31 -59 -47 -59 -14 0 -9 38 8 54 18
19 30 20 39 5z m-190 -58 c0 -44 -20 -50 -39 -13 -11 22 -12 32 -3 41 22 22
42 8 42 -28z m-865 19 c11 -7 14 -26 12 -81 l-2 -71 72 -86 c101 -120 310
-338 372 -389 75 -63 98 -60 216 28 123 92 131 96 142 75 5 -9 20 -28 32 -43
l24 -27 52 32 c28 18 53 32 55 32 2 0 6 -19 10 -42 l7 -42 14 40 c8 21 14 46
14 55 0 8 15 22 33 31 33 16 34 16 44 -10 11 -26 11 -26 12 11 1 20 3 37 5 37
2 0 11 3 20 6 13 5 16 -1 16 -33 0 -41 14 -63 40 -63 8 0 67 24 132 54 l116
53 26 -26 c19 -18 26 -21 26 -10 0 8 -5 20 -11 26 -6 6 -9 16 -5 21 10 17 135
62 169 61 l32 -1 -30 -13 c-16 -8 -24 -14 -16 -15 21 0 51 -30 51 -50 0 -9 -6
-22 -12 -29 -7 -6 -13 -15 -14 -19 -3 -46 -34 -119 -56 -134 -10 -8 -10 -11 0
-15 18 -7 15 -34 -9 -88 -16 -36 -23 -44 -30 -34 -8 12 -11 11 -20 -3 -5 -10
-13 -18 -18 -18 -4 0 -31 -23 -59 -50 -29 -28 -56 -48 -61 -46 -4 3 -18 -4
-30 -15 -12 -11 -25 -17 -30 -14 -5 3 -12 1 -16 -4 -3 -6 -12 -8 -20 -4 -12 4
-15 -3 -15 -31 0 -20 5 -36 10 -36 6 0 10 10 10 23 0 16 6 23 23 24 20 2 21 1
5 -11 -10 -7 -18 -16 -18 -18 0 -8 34 -4 40 4 3 4 23 3 45 -2 32 -7 45 -5 65
8 55 36 156 82 182 82 19 0 32 -9 48 -35 l22 -35 29 20 c15 12 31 25 34 30 3
6 15 15 25 20 18 10 19 8 10 -15 -12 -32 -12 -38 -1 -31 5 3 12 -1 15 -10 10
-26 7 -36 -9 -31 -8 4 -17 2 -20 -3 -4 -6 -2 -10 3 -10 5 0 19 -9 32 -20 16
-14 27 -17 34 -10 5 5 16 10 24 10 12 0 11 -4 -2 -25 -9 -13 -16 -33 -16 -45
0 -26 -17 -26 -25 0 -9 27 -17 25 -36 -9 -12 -21 -14 -32 -6 -40 8 -8 6 -11
-8 -11 -13 0 -6 -9 23 -29 22 -16 43 -34 47 -40 3 -6 15 -11 25 -11 11 0 27
-11 36 -25 9 -14 20 -22 25 -20 4 3 16 -7 26 -22 9 -15 25 -36 35 -46 17 -16
17 -49 2 -66 -7 -8 -64 -8 -64 -1 0 4 -9 10 -20 13 -11 3 -20 1 -20 -5 0 -6
-9 -8 -20 -5 -11 3 -18 2 -16 -2 3 -4 -12 -8 -32 -10 -35 -2 -51 -2 -104 0
-13 1 -41 -4 -63 -11 -22 -6 -47 -13 -55 -14 -8 -2 -28 -8 -44 -15 -16 -6 -42
-13 -59 -15 -17 -2 -33 -9 -35 -16 -6 -17 -40 -50 -51 -50 -5 0 -11 -6 -14
-14 -6 -16 -91 -48 -127 -48 -13 0 -32 10 -42 22 -20 25 -40 27 -113 10 -27
-7 -69 -14 -92 -17 -49 -6 -46 -14 -43 115 1 53 -2 82 -9 82 -6 0 -11 12 -11
26 0 19 4 25 15 20 17 -6 20 5 5 20 -11 11 5 80 21 90 13 7 110 -95 146 -155
22 -37 27 -40 36 -26 10 19 -19 85 -38 85 -5 1 1 10 14 21 l25 20 -27 -6 c-32
-8 -32 -9 -7 46 24 54 27 109 5 109 -9 0 -20 10 -25 23 -8 21 -9 21 -9 2 -1
-12 4 -26 10 -32 14 -14 5 -71 -15 -99 -14 -19 -15 -18 -39 5 -14 13 -23 29
-21 36 3 8 -2 12 -13 12 -13 -2 -19 7 -23 33 -5 31 -6 32 -12 12 -6 -23 -7
-23 -32 -7 -39 26 -53 8 -20 -26 27 -28 27 -29 9 -49 -10 -11 -15 -20 -11 -20
3 0 0 -13 -9 -30 -8 -16 -15 -47 -15 -68 0 -31 4 -41 20 -45 19 -5 20 -11 15
-108 -3 -56 -8 -105 -11 -108 -2 -3 -15 1 -27 8 -12 8 -39 13 -59 13 -21 -1
-38 3 -38 9 0 12 -70 3 -84 -11 -16 -16 -24 -11 -18 12 4 16 2 19 -9 12 -8 -4
-21 -9 -29 -9 -63 -5 -66 -6 -46 -14 18 -7 18 -8 2 -14 -10 -4 -19 -1 -22 8
-9 22 -35 19 -28 -2 5 -14 4 -15 -4 -4 -6 8 -17 11 -26 8 -8 -3 -18 -2 -21 3
-4 6 -11 10 -16 10 -6 0 -7 -5 -4 -10 4 -6 -3 -8 -17 -6 -13 3 -26 5 -30 5 -4
1 -14 8 -22 17 -15 14 -16 14 -16 -2 0 -13 -3 -14 -15 -4 -8 7 -15 8 -15 3 0
-14 -257 -2 -282 13 -6 4 -14 0 -19 -7 -6 -10 -10 -5 -15 19 -10 47 -21 48
-29 2 -7 -39 -8 -40 -43 -39 -21 1 -45 9 -54 17 -9 8 -22 11 -29 6 -8 -4 -10
-3 -5 4 5 8 -2 12 -18 12 -16 0 -24 4 -20 13 2 7 -9 20 -26 30 -16 10 -30 15
-30 10 -1 -4 -10 3 -21 16 -14 17 -31 25 -54 25 -18 1 -31 4 -28 9 2 4 -2 7
-9 7 -8 0 -22 10 -32 21 -12 15 -20 18 -25 10 -11 -17 -54 -23 -63 -8 -6 9 -8
9 -8 -1 0 -16 -99 -14 -116 3 -13 13 -84 8 -84 -6 0 -5 -20 -9 -44 -9 -37 0
-48 -5 -69 -30 -25 -29 -77 -43 -77 -19 0 5 4 8 9 5 8 -5 17 20 24 61 0 5 9
17 19 27 10 11 19 22 19 25 26 113 19 191 -15 191 -11 0 -14 -20 -12 -89 1
-73 4 -88 16 -84 8 3 -3 -12 -25 -32 -22 -20 -40 -42 -40 -49 0 -8 -18 -31
-41 -53 -67 -65 -90 -169 -61 -267 l12 -39 23 46 c31 63 47 71 39 21 -4 -21
-10 -70 -13 -109 -4 -38 -11 -79 -17 -89 -9 -18 -10 -18 -19 -2 -5 9 -10 31
-10 49 0 18 -10 50 -21 72 -17 35 -21 37 -27 20 -21 -60 2 -207 46 -287 31
-57 11 -64 -40 -12 l-35 36 -3 -229 c-3 -205 -5 -231 -21 -247 -10 -10 -20
-16 -23 -13 -3 2 -7 85 -10 183 -6 224 -9 244 -34 244 -19 0 -20 8 -20 110 l0
110 35 0 35 0 0 65 c0 76 23 196 51 268 19 47 20 73 18 393 l-1 342 27 50 c15
27 72 100 127 163 55 63 104 121 109 130 5 10 2 38 -8 73 l-16 57 49 50 c71
73 261 196 345 226 116 40 235 55 269 33z m1415 0 c11 -18 -15 -40 -46 -40
-21 0 -29 5 -29 18 0 10 3 22 7 25 10 11 61 8 68 -3z m-675 -15 c0 -8 -7 -15
-15 -15 -8 0 -15 7 -15 15 0 8 7 15 15 15 8 0 15 -7 15 -15z m220 -15 c0 -5
-5 -10 -11 -10 -5 0 -7 5 -4 10 3 6 8 10 11 10 2 0 4 -4 4 -10z m620 -11 c0
-5 -7 -9 -15 -9 -15 0 -20 12 -9 23 8 8 24 -1 24 -14z m70 5 c0 -8 -4 -12 -10
-9 -5 3 -10 10 -10 16 0 5 5 9 10 9 6 0 10 -7 10 -16z m-850 -4 c0 -5 -4 -10
-10 -10 -5 0 -10 5 -10 10 0 6 5 10 10 10 6 0 10 -4 10 -10z m670 -10 c0 -5
-5 -10 -11 -10 -5 0 -7 5 -4 10 3 6 8 10 11 10 2 0 4 -4 4 -10z m-460 -102 c0
-14 -8 -18 -34 -18 -18 0 -39 7 -46 15 -10 12 -6 18 22 35 31 19 34 19 46 3 6
-9 12 -25 12 -35z m643 35 c3 -5 8 -23 12 -40 6 -29 4 -33 -14 -33 -22 0 -38
38 -27 65 6 16 22 20 29 8z m-185 -21 c3 -9 -2 -13 -14 -10 -9 1 -19 9 -22 16
-3 9 2 13 14 10 9 -1 19 -9 22 -16z m301 1 c0 -10 -3 -13 -5 -6 -3 7 -12 9
-20 6 -8 -3 -14 0 -14 6 0 6 9 11 20 11 13 0 20 -6 19 -17z m-479 -10 c-1 -19
-20 -36 -44 -38 -33 -4 -36 22 -3 35 28 11 47 12 47 3z m-205 -22 c-3 -6 -11
-11 -17 -11 -6 0 -6 6 2 15 14 17 26 13 15 -4z m-192 -15 c3 -8 29 -15 67 -19
34 -3 64 -8 67 -11 3 -3 6 -34 8 -70 2 -59 0 -67 -24 -90 -22 -21 -88 -56
-106 -56 -3 0 -10 11 -15 25 -5 14 -14 25 -20 25 -6 0 -22 -11 -36 -25 -17
-17 -36 -25 -59 -25 -44 0 -67 32 -73 103 -5 60 -1 65 92 121 64 38 91 44 99
22z m-251 -18 c5 -14 -20 -44 -28 -35 -8 8 6 47 16 47 5 0 10 -6 12 -12z m788
-38 c0 -5 -4 -10 -10 -10 -5 0 -10 5 -10 10 0 6 5 10 10 10 6 0 10 -4 10 -10z
m215 -30 c3 -5 -1 -10 -9 -10 -9 0 -16 5 -16 10 0 6 4 10 9 10 6 0 13 -4 16
-10z m-792 -188 c-3 -12 -9 -22 -14 -22 -12 0 -11 7 2 32 13 25 20 19 12 -10z
m87 -40 c0 -4 -9 -13 -20 -20 -22 -13 -27 -3 -8 16 14 14 28 16 28 4z m930
-461 c0 -6 -4 -13 -10 -16 -5 -3 -10 1 -10 9 0 9 5 16 10 16 6 0 10 -4 10 -9z
m10 -151 c0 -5 -4 -10 -10 -10 -5 0 -10 5 -10 10 0 6 5 10 10 10 6 0 10 -4 10
-10z m210 -271 c0 -5 -4 -9 -10 -9 -5 0 -10 7 -10 16 0 8 5 12 10 9 6 -3 10
-10 10 -16z m-344 -24 c-11 -8 -30 -15 -42 -15 -13 0 -26 -4 -29 -10 -3 -5
-11 -10 -18 -10 -24 0 15 25 56 37 55 15 55 15 33 -2z m-1949 -62 c-7 -7 -57
8 -57 18 0 4 14 3 31 -3 16 -6 28 -12 26 -15z m-292 -13 c10 -11 29 -20 42
-20 29 0 72 -21 95 -47 16 -18 15 -18 -25 -16 -36 2 -37 1 -12 -5 42 -10 28
-26 -20 -23 -42 2 -115 -22 -115 -39 0 -6 -6 -10 -12 -10 -7 0 -30 -15 -50
-33 -20 -17 -51 -40 -68 -49 -16 -9 -35 -29 -40 -43 -12 -31 -18 -32 -29 -2
-9 24 5 51 21 41 13 -9 -1 39 -15 47 -5 4 -7 11 -3 17 3 6 1 14 -5 18 -8 4 -7
9 2 15 11 7 11 11 2 17 -19 12 22 72 57 85 17 6 30 17 30 23 0 13 71 42 106
43 11 1 29 -8 39 -19z m2487 10 c11 0 38 -18 59 -39 34 -34 38 -42 30 -64 -6
-14 -6 -27 -1 -29 9 -3 13 -22 11 -52 -1 -15 -4 -16 -16 -6 -11 9 -19 8 -37
-4 -34 -24 -56 -21 -33 4 17 19 17 20 -21 16 -45 -5 -77 13 -68 38 5 14 -2 16
-47 16 -30 0 -68 -4 -84 -9 -17 -4 -38 -5 -49 -2 -17 7 -16 9 7 37 25 30 102
74 129 74 9 0 29 7 44 15 16 8 35 13 42 10 8 -3 23 -5 34 -5z m-2750 -22 c-6
-6 -15 -8 -19 -4 -4 4 -1 11 7 16 19 12 27 3 12 -12z m351 -168 c9 -11 29 -20
44 -20 16 0 45 -8 67 -18 l38 -17 -28 -15 c-16 -8 -34 -21 -40 -29 -6 -8 -16
-11 -22 -7 -5 3 -12 3 -14 -1 -4 -10 -107 -60 -141 -68 -15 -4 -27 -12 -27
-17 0 -7 -5 -6 -13 1 -10 8 -19 6 -33 -8 -23 -21 -64 -12 -64 15 0 12 6 15 25
10 24 -6 35 7 15 19 -29 18 18 81 103 139 61 41 67 42 90 16z m2247 -5 c0 -8
4 -15 10 -15 5 0 7 7 4 15 -4 9 -1 15 7 15 17 -1 49 -24 49 -35 0 -5 -8 -17
-17 -29 -18 -19 -18 -19 7 -3 33 23 45 21 58 -8 16 -34 15 -38 -3 -31 -19 7
-19 1 1 -29 16 -25 16 -25 -17 -27 -55 -2 -83 2 -94 15 -5 7 -25 11 -42 9 -19
-2 -33 1 -33 7 0 6 -8 11 -18 11 -10 0 -27 7 -38 15 -10 8 -30 15 -43 15 l-24
0 28 24 c16 14 50 30 77 36 26 7 51 16 54 21 9 15 34 10 34 -6z m-966 -185 c0
-19 -9 -83 -19 -141 -16 -91 -17 -113 -6 -149 8 -26 20 -44 31 -47 19 -5 24
-20 36 -105 5 -40 4 -48 -10 -48 -9 0 -16 -4 -16 -10 0 -5 0 -13 0 -17 0 -5 5
-8 12 -8 7 0 18 -11 25 -25 12 -23 11 -25 -12 -28 l-25 -3 21 -22 c12 -13 19
-31 16 -44 -2 -13 0 -23 4 -23 5 0 9 9 9 19 0 11 4 23 10 26 12 8 6 -105 -6
-114 -5 -3 -18 -19 -28 -35 -14 -22 -20 -26 -27 -15 -12 18 -11 66 0 74 5 3
12 -3 14 -12 3 -10 5 -2 6 17 0 33 0 34 -15 15 -8 -11 -20 -19 -25 -17 -7 2
-8 -18 -3 -54 6 -53 5 -56 -13 -50 -23 7 -83 -20 -83 -37 0 -9 -2 -9 -8 0 -9
14 -64 13 -74 -2 -4 -5 -18 1 -32 15 -17 15 -39 24 -61 24 -20 1 -35 6 -35 13
0 7 -6 10 -12 8 -22 -8 -50 21 -43 44 4 13 2 21 -6 21 -15 0 -38 -30 -39 -52
0 -23 -16 -31 -39 -19 -17 10 -20 6 -26 -32 -11 -69 -16 -82 -26 -66 -9 15 -3
74 12 126 7 23 7 37 -2 52 -12 18 -14 18 -25 3 -10 -14 -14 -14 -28 -3 -14 12
-19 11 -30 -4 -15 -21 -32 -4 -22 22 5 12 1 14 -14 10 -17 -4 -19 -3 -10 8 7
9 8 15 1 19 -6 4 -14 -8 -18 -25 -7 -27 -5 -36 21 -63 16 -17 35 -41 44 -53 8
-13 20 -23 26 -23 7 0 12 -10 10 -22 -1 -13 -3 -35 -3 -50 -1 -40 -35 -70 -74
-67 -36 3 -107 -9 -122 -22 -6 -4 -17 -4 -25 1 -8 6 -28 9 -45 9 -27 -1 -26
-2 9 -9 22 -4 46 -16 54 -26 13 -16 14 -17 9 -2 -6 18 5 24 63 30 23 3 25 -1
32 -56 5 -37 17 -74 33 -98 30 -46 113 -112 160 -129 19 -7 35 -17 35 -21 0
-4 11 -8 24 -8 21 0 24 -4 21 -30 -4 -29 7 -40 20 -20 3 6 10 10 14 10 12 0
34 -77 28 -94 -5 -12 0 -16 18 -16 27 0 32 -9 13 -28 -8 -8 -8 -12 -1 -12 6 0
14 8 18 18 6 15 8 14 16 -6 5 -13 15 -22 21 -20 16 6 23 38 8 38 -21 0 -48 35
-55 73 -6 30 -4 37 9 37 9 0 16 -4 16 -9 0 -5 34 -8 75 -8 l75 2 0 -30 c0 -16
-9 -45 -20 -62 -11 -18 -15 -33 -10 -33 6 0 10 5 10 11 0 6 9 9 20 6 11 -3 18
0 17 6 -1 6 7 12 18 14 15 3 17 2 6 -5 -7 -5 -9 -12 -5 -15 5 -3 15 1 21 9 9
8 9 15 3 19 -6 4 -8 22 -4 43 11 70 12 72 47 65 18 -3 38 -13 45 -21 16 -21
15 -2 -2 21 -7 9 -20 17 -27 17 -8 0 -15 8 -16 19 -2 19 8 25 90 60 61 26 163
105 188 145 12 19 19 49 19 79 0 42 2 47 23 48 l22 0 -23 10 c-13 5 -26 18
-29 29 -4 14 -11 19 -24 15 -11 -3 -27 -7 -37 -10 -24 -7 -52 42 -52 90 0 35
2 37 26 31 19 -5 30 -1 44 16 11 13 19 29 20 36 0 6 4 12 10 12 5 0 7 6 4 13
-6 16 -34 18 -34 3 0 -6 -4 -5 -9 3 -6 9 -11 10 -15 2 -11 -17 -46 -13 -46 4
0 9 -7 15 -17 13 -11 -2 -25 12 -43 45 -14 26 -31 51 -38 56 -10 6 -7 12 12
25 15 9 43 41 63 71 19 30 42 55 49 55 8 0 27 -15 43 -32 31 -34 63 -53 141
-83 25 -9 53 -21 62 -26 10 -5 23 -9 29 -9 7 0 40 -13 74 -29 76 -36 155 -50
155 -28 0 10 20 18 63 27 82 17 75 16 131 35 28 9 60 24 73 32 30 20 78 100
102 169 33 99 57 99 54 1 -1 -34 -9 -79 -17 -99 -21 -50 -20 -59 2 -25 10 15
22 24 27 20 4 -5 5 0 2 9 -6 16 10 38 25 35 4 -1 16 6 28 15 20 17 20 17 19
-15 0 -17 -4 -41 -9 -52 -7 -17 -9 -16 -10 10 -2 22 -4 24 -7 10 -3 -11 -9
-24 -14 -29 -5 -6 -5 -14 1 -21 6 -7 3 -24 -10 -48 -11 -20 -18 -37 -15 -37 3
0 -6 -17 -20 -37 -14 -21 -25 -44 -25 -51 0 -7 -4 -11 -8 -8 -4 2 -8 -4 -8
-15 0 -26 15 -24 68 11 52 34 63 56 77 155 18 118 36 196 46 195 6 -1 9 -7 7
-15 -1 -7 2 -16 8 -20 6 -4 5 -18 -5 -40 -13 -32 -13 -36 6 -45 23 -13 24 -35
3 -75 -10 -19 -11 -31 -5 -33 16 -5 13 -20 -9 -44 -11 -12 -18 -29 -15 -38 3
-9 -4 -25 -15 -35 -11 -10 -20 -22 -20 -26 0 -13 -44 -78 -53 -79 -16 0 -66
-60 -51 -60 26 0 14 -21 -21 -36 -19 -8 -35 -21 -35 -29 0 -20 -37 -39 -43
-22 -4 9 -7 9 -18 0 -10 -10 -16 -10 -27 0 -13 10 -14 8 -8 -11 8 -24 0 -27
-38 -13 -18 7 -28 6 -36 -5 -16 -18 -26 -18 -34 2 -3 8 -2 12 3 9 5 -3 12 -1
15 4 10 15 -18 19 -65 10 -24 -4 -48 -8 -53 -9 -4 0 -6 -7 -2 -15 3 -8 0 -14
-5 -12 -6 1 -13 -16 -16 -38 -2 -21 -9 -46 -16 -54 -9 -12 -9 -13 0 -7 8 4 23
-3 38 -18 22 -22 24 -29 14 -47 -9 -18 -13 -19 -20 -8 -7 10 -8 6 -4 -12 6
-24 4 -25 -29 -21 -20 2 -36 7 -36 11 0 15 -53 32 -64 21 -15 -15 -26 -12 -26
7 0 15 -2 14 -14 -3 -13 -17 -14 -16 -11 18 2 21 6 41 9 46 3 5 -1 24 -10 41
-9 19 -13 42 -10 56 5 18 2 25 -9 25 -8 0 -15 6 -16 13 0 6 -4 3 -9 -8 -5 -14
-3 -24 6 -31 8 -6 12 -19 8 -28 -3 -9 -2 -16 4 -16 5 0 9 -18 9 -40 0 -45 -13
-52 -27 -16 -5 13 -22 28 -38 34 -17 6 -33 20 -38 34 -7 22 -7 22 -15 3 -8
-19 -8 -19 -15 2 -3 13 -11 20 -16 17 -5 -3 -7 -12 -4 -20 3 -8 0 -14 -6 -14
-6 0 -8 -3 -4 -7 4 -4 14 -8 23 -8 9 0 19 -10 24 -23 6 -16 5 -21 -2 -16 -15
9 -7 -130 9 -149 10 -11 4 -20 -28 -45 -21 -18 -54 -34 -72 -36 -18 -2 -34 -8
-34 -15 -1 -6 -2 -17 -3 -23 -1 -9 -4 -8 -11 2 -8 13 -10 12 -10 -2 0 -10 -5
-18 -11 -18 -5 0 -7 -6 -4 -12 4 -7 0 -5 -8 5 -18 22 -23 22 -30 -4 -5 -19
-10 -20 -69 -13 -35 3 -71 13 -81 22 -19 17 -33 11 -21 -9 13 -22 14 -66 1
-77 -17 -14 -125 -44 -135 -38 -5 3 -26 -7 -47 -21 -56 -38 -93 -37 -172 5
-59 31 -78 35 -140 36 l-73 0 0 53 c0 39 4 55 18 62 15 9 15 12 2 21 -21 14
-30 12 -30 -5 0 -14 -38 -55 -51 -55 -4 0 -11 10 -14 21 -5 15 -9 18 -15 9 -6
-9 -11 -8 -19 6 -10 17 -11 16 -5 -6 4 -14 8 -33 8 -42 0 -10 5 -18 11 -18 6
0 19 -16 29 -35 11 -19 25 -35 32 -35 21 0 24 -29 4 -40 -31 -16 -43 -12 -37
13 l6 22 -17 -21 c-21 -27 -93 -40 -122 -22 -23 15 -27 33 -5 25 8 -4 17 -1
21 4 4 7 25 9 53 5 25 -3 40 -3 34 0 -7 3 -14 15 -14 27 -1 17 -2 18 -6 5 -3
-12 -14 -18 -36 -18 -58 0 -92 -5 -115 -18 -12 -7 -26 -10 -31 -7 -5 3 -21 1
-35 -5 -24 -9 -26 -7 -26 19 0 26 -2 28 -42 26 -77 -3 -87 24 -31 79 42 40 54
43 79 19 9 -9 25 -18 35 -18 11 -1 32 -14 47 -28 35 -34 69 -36 68 -4 -1 24
-18 47 -36 47 -6 0 -13 7 -16 15 -4 8 -10 13 -14 10 -5 -3 -15 -2 -24 1 -17 6
-23 71 -8 90 4 5 -4 -1 -17 -14 -12 -13 -25 -22 -27 -19 -8 8 31 87 42 83 6
-2 16 4 22 15 10 15 9 17 -3 13 -10 -4 -15 0 -15 11 0 11 5 15 15 11 18 -6 18
-5 6 28 -7 16 -6 34 1 54 6 16 8 38 3 48 -4 12 -9 14 -12 7 -2 -7 -10 -10 -17
-7 -8 3 -16 -5 -20 -21 -4 -14 -11 -23 -16 -20 -6 3 -10 -1 -10 -10 0 -13 -4
-14 -20 -5 -11 6 -25 8 -30 5 -5 -3 -13 2 -18 12 -9 14 -10 13 -9 -8 1 -16 8
-26 17 -25 8 1 16 -7 18 -16 2 -10 -1 -18 -7 -18 -6 0 -11 5 -11 11 0 6 -11 4
-27 -5 -16 -8 -37 -18 -48 -22 -18 -6 -18 -8 -2 -11 9 -3 17 -8 17 -13 0 -4
-8 -6 -19 -3 -10 3 -22 0 -25 -6 -4 -6 -2 -11 3 -11 6 0 11 -4 11 -10 0 -5
-16 -10 -35 -10 -39 0 -47 18 -12 28 20 6 20 7 -8 12 -27 5 -30 9 -28 40 1 19
0 42 -3 50 -4 8 -8 37 -10 64 -2 28 -8 54 -14 60 -7 7 -10 5 -10 -4 0 -12 -3
-11 -16 2 -9 9 -18 41 -21 76 -3 34 -9 59 -14 56 -4 -2 -6 -11 -3 -18 3 -8 0
-17 -6 -21 -9 -6 -9 -10 1 -16 12 -8 11 -11 -1 -19 -13 -8 -13 -11 -1 -19 21
-14 5 -28 -36 -34 -21 -3 -48 -8 -60 -12 -15 -5 -23 -3 -23 4 0 6 6 11 14 11
8 0 17 4 20 8 3 4 -7 8 -22 8 -25 -1 -27 2 -26 42 0 23 -3 42 -8 42 -4 0 -9
-39 -9 -87 -1 -49 -3 -80 -6 -70 -5 20 -8 20 -34 7 -13 -7 -19 -7 -19 0 0 5 5
10 10 10 6 0 10 5 10 10 0 6 -6 10 -14 10 -7 0 -25 9 -38 20 -21 16 -31 18
-59 10 -19 -6 -35 -10 -36 -10 -1 0 -9 14 -18 30 -9 17 -22 30 -30 30 -8 0
-17 14 -21 35 -8 47 -19 36 -16 -18 1 -42 1 -42 -10 -12 -13 34 -25 45 -44 38
-8 -3 -21 3 -31 13 -17 17 -17 17 0 11 9 -3 17 -2 17 2 0 5 -7 11 -15 15 -8 3
-15 14 -15 23 0 10 -14 31 -32 46 -24 22 -28 31 -19 40 9 9 16 7 29 -11 11
-14 24 -21 33 -17 19 7 22 44 4 61 -15 16 -29 19 -21 5 7 -11 -28 -21 -42 -12
-6 3 -13 22 -17 42 -6 31 -3 39 16 52 12 9 26 14 31 11 4 -3 8 2 8 10 0 15
-11 20 -37 17 -8 -1 -10 5 -6 15 4 11 3 15 -5 10 -6 -3 -13 -2 -17 4 -3 6 1
13 9 16 9 3 16 16 16 28 0 17 -2 18 -10 6 -8 -12 -10 -12 -10 5 -1 11 -3 35
-5 53 -1 18 3 39 10 46 8 7 12 25 11 39 -2 15 1 24 5 21 5 -3 9 3 9 12 0 16 2
15 21 -2 12 -10 30 -18 40 -16 24 4 26 -3 34 -115 6 -96 -2 -114 -31 -75 -12
16 -13 15 -14 -8 0 -44 21 -154 33 -175 7 -11 14 -35 16 -54 7 -79 41 -113 41
-41 0 47 8 49 75 20 26 -11 56 -20 67 -20 25 0 19 21 -10 36 -27 14 -74 102
-59 111 6 4 2 9 -10 14 -21 8 -50 89 -38 108 3 6 1 28 -5 47 -10 29 -10 39 2
50 12 12 19 11 48 -11 19 -14 37 -25 41 -25 3 0 4 19 2 43 -7 75 -5 129 6 140
12 12 17 1 25 -58 9 -68 65 -165 116 -201 25 -17 48 -30 51 -28 4 2 33 -5 65
-17 33 -11 74 -22 92 -24 39 -3 64 -22 41 -29 -42 -13 -38 -16 15 -11 32 3 99
21 150 41 50 19 129 50 176 67 103 39 110 43 139 85 31 45 53 41 80 -14 13
-25 29 -48 37 -51 7 -3 16 -13 19 -23 7 -21 45 -23 45 -3 0 7 5 13 11 13 5 0
7 5 3 11 -9 15 16 30 39 23 9 -3 17 -1 17 5 0 6 7 11 15 11 9 0 12 -6 8 -17
-4 -10 10 -1 30 19 20 21 37 40 37 44 0 4 8 13 18 21 13 11 13 13 2 10 -8 -2
-19 -13 -25 -25 -11 -25 -25 -32 -79 -38 -42 -6 -48 0 -93 84 -21 39 -38 111
-33 136 1 5 -3 12 -9 16 -17 10 -3 37 21 44 22 5 78 -27 78 -45 0 -5 5 -9 11
-9 8 0 9 11 4 33 -4 17 -8 40 -9 49 -1 10 -5 21 -9 24 -4 4 -7 14 -7 21 0 8
-17 32 -37 54 -21 23 -46 54 -56 70 -22 35 -12 42 49 37 37 -3 39 -5 42 -40 2
-21 4 -38 5 -38 1 0 25 7 52 15 28 9 67 20 88 26 26 7 37 15 37 29 0 22 33 28
140 26 l65 -1 -1 -35z m115 21 c11 -7 10 -15 -8 -44 -24 -40 -55 -55 -76 -37
-13 11 -8 51 10 80 8 12 55 13 74 1z m45 -12 c-3 -5 -10 -7 -15 -3 -5 3 -7 10
-3 15 3 5 10 7 15 3 5 -3 7 -10 3 -15z m-120 -94 c13 -13 12 -21 -7 -65 -28
-62 -42 -64 -33 -4 3 26 6 55 6 65 0 23 13 24 34 4z m-28 -146 c1 -5 2 -18 3
-30 1 -19 5 -17 35 14 51 53 85 36 86 -43 0 -15 -4 -30 -8 -35 -5 -6 -17 -32
-26 -58 -23 -61 -47 -61 -52 2 -5 52 -10 61 -34 61 -10 0 -21 7 -24 16 -8 21
-8 79 1 87 7 8 17 0 19 -14z m1214 -139 c0 -11 -7 -23 -15 -26 -8 -4 -15 -12
-15 -19 0 -8 -5 -17 -11 -21 -8 -4 -9 1 -4 16 4 12 8 28 9 34 5 35 36 49 36
16z m-2750 -47 c0 -18 -15 -16 -35 3 -13 13 -13 19 -3 31 10 13 14 13 25 -3 7
-10 13 -24 13 -31z m1630 -127 c0 -3 -4 -8 -10 -11 -5 -3 -10 -1 -10 4 0 6 5
11 10 11 6 0 10 -2 10 -4z m170 -395 c0 -6 -4 -13 -10 -16 -5 -3 -10 1 -10 9
0 9 5 16 10 16 6 0 10 -4 10 -9z m-1467 -91 c4 0 5 5 2 10 -3 6 3 10 14 10 12
0 21 -2 21 -4 0 -2 3 -12 7 -22 4 -11 3 -15 -4 -11 -6 4 -25 0 -42 -9 -26 -13
-34 -14 -47 -3 -14 11 -18 10 -29 -4 -11 -16 -13 -16 -19 -1 -10 27 -7 34 17
34 12 0 29 5 37 10 9 6 18 6 24 0 6 -6 14 -10 19 -10z m-53 -40 c0 -5 -4 -10
-10 -10 -5 0 -10 5 -10 10 0 6 5 10 10 10 6 0 10 -4 10 -10z m160 -176 c0 -8
-5 -12 -10 -9 -6 4 -8 11 -5 16 9 14 15 11 15 -7z m1592 -78 c4 -18 1 -22 -12
-19 -9 2 -23 -3 -31 -13 -13 -16 -12 -16 9 -5 25 13 30 0 7 -19 -8 -7 -15 -18
-15 -24 0 -6 5 -3 11 6 5 10 19 23 30 29 17 9 25 7 45 -12 13 -12 24 -28 24
-36 0 -7 5 -13 10 -13 6 0 10 6 10 12 0 7 12 0 28 -15 23 -23 25 -29 12 -37
-22 -14 -28 -12 -35 11 -5 16 -9 18 -15 9 -5 -7 -6 -19 -3 -27 8 -20 -16 -43
-44 -43 -18 0 -28 -8 -35 -28 -6 -16 -23 -33 -38 -39 -19 -7 -29 -20 -34 -43
-7 -37 -15 -36 -18 2 -2 19 -7 24 -20 20 -10 -2 -18 -8 -18 -13 0 -5 -7 -6
-15 -3 -22 9 -19 19 10 34 14 7 25 19 25 26 0 9 -11 6 -34 -9 -55 -36 -72 -48
-58 -41 24 11 61 -18 72 -55 5 -19 7 -37 5 -40 -3 -2 -5 1 -5 8 0 8 -7 10 -21
6 -12 -4 -41 1 -66 10 -42 16 -45 20 -39 46 3 16 1 29 -4 29 -6 0 -10 -7 -10
-15 0 -8 -8 -15 -17 -15 -24 1 -55 25 -52 42 1 7 -4 27 -10 43 -12 27 -14 28
-20 11 -6 -15 -10 -16 -15 -7 -5 8 -2 19 7 29 15 14 19 13 41 -11 31 -34 38
-34 30 -2 -5 19 -2 25 9 25 9 0 19 4 22 10 3 6 -1 7 -9 4 -12 -5 -16 0 -16 19
0 20 6 26 32 31 38 8 46 1 30 -24 -7 -12 -8 -20 -2 -20 5 0 10 -6 10 -14 0 -7
6 -19 13 -25 11 -9 13 -2 6 37 -4 26 -5 49 -3 51 2 2 16 -4 30 -14 42 -27 102
-25 126 5 l19 24 -22 8 c-12 5 -25 5 -28 1 -10 -13 -50 -33 -66 -33 -20 0 -19
20 3 36 9 7 18 17 18 23 1 6 2 15 3 21 0 5 7 7 14 5 7 -3 27 10 45 30 39 41
68 45 74 11z m-1009 -127 c-4 -13 -9 -17 -15 -11 -11 11 -3 32 12 32 4 0 6 -9
3 -21z m667 -8 c0 -5 -6 -14 -14 -20 -16 -13 -32 2 -21 19 8 12 35 13 35 1z
m20 -31 c0 -5 -2 -10 -4 -10 -3 0 -8 5 -11 10 -3 6 -1 10 4 10 6 0 11 -4 11
-10z m-912 -88 c2 -7 -5 -12 -17 -12 -14 0 -19 5 -14 15 6 17 25 15 31 -3z
m142 -27 c7 -8 20 -15 30 -15 10 0 20 7 24 15 6 17 36 21 36 5 0 -5 -5 -10
-11 -10 -5 0 -8 -4 -5 -9 3 -4 -3 -16 -14 -26 -19 -17 -20 -17 -20 1 0 15 -4
14 -18 -8 -9 -16 -22 -28 -29 -28 -7 0 -22 -9 -32 -19 -26 -26 -52 -30 -73
-11 -24 20 -23 28 7 42 43 19 31 38 -20 33 -25 -2 -45 0 -45 4 0 12 75 32 93
25 8 -3 18 -1 22 5 9 16 41 13 55 -4z m-200 -45 c0 -5 -7 -7 -15 -4 -8 4 -15
8 -15 10 0 2 7 4 15 4 8 0 15 -4 15 -10z m753 -201 c40 -5 86 -12 104 -15 25
-4 37 -14 56 -49 l25 -43 -37 5 c-20 3 -40 9 -46 13 -30 22 -213 28 -352 11
-35 -4 -63 -4 -63 1 0 5 -9 4 -20 -2 -11 -6 -40 -14 -66 -19 -44 -8 -45 -8
-40 13 3 11 6 26 6 32 0 17 66 46 124 54 78 12 229 11 309 -1z m-476 -65 c-15
-8 -26 -18 -23 -22 2 -4 -10 -14 -27 -22 -18 -7 -34 -16 -37 -20 -3 -4 -21
-10 -42 -13 -28 -4 -40 -1 -53 13 -23 25 -14 36 37 44 23 4 47 11 53 16 10 8
50 16 95 18 l25 1 -28 -15z m707 6 c17 -6 24 -14 20 -25 -8 -21 -17 -19 -48
10 -29 27 -18 33 28 15z m81 -24 c10 -7 27 -11 37 -8 21 5 22 -4 3 -38 l-14
-25 -10 25 c-5 14 -10 19 -10 13 -1 -10 -7 -10 -28 -1 -38 16 -37 16 -23 33
15 18 21 19 45 1z m150 -27 c7 -10 -20 -24 -62 -32 -36 -7 -45 10 -19 36 15
14 72 12 81 -4z m-1149 4 c-10 -11 -36 -12 -36 -2 0 5 10 9 22 9 12 0 18 -3
14 -7z m617 -22 c66 -1 77 -4 78 -18 1 -16 2 -16 6 1 4 15 11 17 41 11 21 -4
46 -8 57 -10 11 -2 22 -4 25 -6 10 -4 25 -7 51 -8 39 -2 54 -42 28 -75 -23
-29 -49 -34 -49 -10 0 10 -5 14 -15 10 -8 -3 -21 -9 -29 -12 -9 -3 -19 3 -26
15 -8 16 -17 20 -35 15 -15 -4 -25 -2 -25 4 0 6 -22 9 -55 7 -43 -3 -57 0 -65
13 -8 12 -13 13 -16 5 -3 -7 -12 -9 -20 -6 -13 5 -13 7 -2 14 10 7 10 9 -3 9
-9 0 -24 -9 -34 -20 -13 -14 -31 -20 -64 -20 -25 0 -57 -2 -71 -4 -14 -2 -33
4 -42 12 -13 11 -18 12 -18 2 0 -6 -6 -10 -14 -7 -8 3 -18 -5 -25 -21 -10 -21
-14 -23 -22 -11 -7 11 -9 10 -10 -6 0 -11 -3 -15 -5 -8 -7 17 -50 -1 -75 -30
-16 -18 -20 -20 -28 -7 -8 12 -12 12 -29 -3 -10 -9 -22 -14 -26 -10 -9 10 -46
11 -40 1 3 -4 -2 -8 -10 -8 -9 0 -16 -6 -16 -13 0 -8 -7 -14 -16 -14 -11 0
-14 7 -12 22 3 15 0 21 -11 21 -33 -2 -24 18 9 20 19 2 36 7 38 13 3 8 94 61
106 61 3 0 7 -8 9 -17 4 -15 5 -15 6 2 0 11 17 33 36 48 36 28 61 30 93 4 9
-7 16 -5 25 6 16 21 71 32 155 31 37 -1 102 -2 145 -3z m-593 -20 c0 -14 -6
-17 -25 -13 -20 3 -23 7 -14 18 16 20 39 17 39 -5z m949 -66 c20 0 26 -24 7
-31 -9 -3 -16 -11 -16 -16 0 -6 7 -8 15 -4 9 3 15 0 15 -9 0 -8 -7 -15 -16
-15 -11 0 -14 -6 -9 -20 11 -34 -5 -22 -21 17 -12 27 -18 33 -24 23 -18 -29
-20 -1 -4 40 14 34 20 40 28 29 6 -8 17 -14 25 -14z m76 -25 c14 -5 24 -14 21
-18 -3 -5 20 -9 51 -10 44 -1 60 -6 79 -26 22 -21 22 -24 7 -28 -31 -8 -173
-2 -182 8 -5 5 -13 26 -16 47 -8 40 -3 43 40 27z m-725 -14 c0 -3 -4 -8 -10
-11 -5 -3 -10 -1 -10 4 0 6 5 11 10 11 6 0 10 -2 10 -4z m-175 -66 c3 -5 1
-10 -4 -10 -6 0 -11 5 -11 10 0 6 2 10 4 10 3 0 8 -4 11 -10z m482 -73 c3 -4
17 -7 30 -7 13 0 23 -4 23 -10 0 -5 6 -10 14 -10 8 0 22 -13 31 -28 9 -15 29
-33 44 -40 30 -13 34 -30 19 -81 -7 -22 -13 -29 -18 -21 -6 10 -15 8 -37 -9
-43 -35 -54 -60 -36 -88 28 -42 -11 -27 -56 22 -22 24 -41 43 -41 40 0 -7 61
-94 70 -100 5 -3 7 -12 4 -20 -4 -8 -10 -12 -15 -9 -5 3 -7 10 -4 15 3 5 0 6
-8 3 -8 -3 -18 -1 -22 5 -11 20 -45 13 -45 -9 0 -11 -5 -20 -11 -20 -6 0 -9 9
-6 20 6 23 4 24 -21 11 -56 -30 -95 -42 -104 -33 -16 16 0 48 23 49 12 1 26 6
30 10 8 8 -6 11 -53 14 -9 0 -19 12 -23 26 -5 20 -8 23 -20 13 -12 -10 -15 -9
-15 4 0 9 -6 15 -12 13 -7 -1 -12 4 -11 11 2 6 -5 12 -14 12 -32 0 14 34 48
36 17 1 35 7 39 14 4 7 30 13 60 13 47 1 56 -3 81 -31 16 -18 29 -27 29 -20 0
6 -10 22 -22 35 -17 18 -19 26 -10 35 7 7 12 16 12 22 0 6 -5 5 -12 -2 -15
-15 -32 -16 -22 -1 4 7 -2 6 -17 -2 -13 -7 -33 -14 -44 -15 -43 -7 -54 -10
-69 -24 -12 -10 -20 -10 -28 -2 -8 8 -19 4 -41 -14 -24 -21 -32 -23 -38 -12
-12 21 0 58 17 51 9 -3 12 0 9 9 -3 8 8 21 31 33 19 10 42 32 50 47 14 27 18
30 47 32 6 1 18 7 26 14 14 14 124 12 138 -1z m440 -3 c-3 -3 -12 -4 -19 -1
-8 3 -5 6 6 6 11 1 17 -2 13 -5z m-774 -149 c-3 -9 -8 -14 -10 -11 -3 3 -2 9
2 15 9 16 15 13 8 -4z m-1311 -12 c16 -15 18 -35 18 -227 l0 -211 28 -13 c37
-16 52 -50 52 -115 -1 -57 -17 -113 -46 -153 -11 -15 -24 -35 -29 -44 -30 -51
-25 -50 -233 -50 -168 0 -198 2 -214 17 -10 9 -18 21 -18 28 0 6 -11 22 -25
35 -40 37 -58 100 -53 178 6 75 28 127 58 137 19 6 20 15 20 202 0 169 2 199
17 215 15 16 35 18 211 18 168 0 198 -2 214 -17z m1931 -33 c47 -13 57 -23 35
-36 -16 -10 -117 -11 -111 -1 2 4 -5 7 -16 7 -23 0 -27 20 -11 51 10 17 13 17
33 5 12 -7 43 -19 70 -26z m-663 11 c0 -17 -31 -34 -65 -35 -40 -1 -32 13 18
31 40 14 47 15 47 4z m806 -16 c6 -16 -12 -45 -27 -45 -10 0 -12 44 -2 53 11
11 23 8 29 -8z m92 -32 c-2 -30 -8 -38 -31 -44 -15 -4 -25 -3 -22 1 11 18 -17
21 -37 3 -24 -21 -22 -13 11 40 18 29 29 37 53 37 28 0 29 -2 26 -37z m45 17
c-3 -11 -9 -23 -14 -26 -10 -6 -12 29 -2 39 13 13 21 7 16 -13z m-1111 -25 c6
-27 -10 -33 -30 -13 -18 18 -14 38 7 38 12 0 20 -9 23 -25z m-118 6 c3 -5 -3
-11 -15 -14 -16 -4 -18 -3 -8 9 13 16 16 17 23 5z m146 5 c0 -3 -4 -8 -10 -11
-5 -3 -10 -1 -10 4 0 6 5 11 10 11 6 0 10 -2 10 -4z m-25 -74 c8 -20 -3 -32
-23 -25 -14 5 -15 3 -4 -8 18 -19 15 -33 -4 -15 -8 9 -13 20 -10 25 9 14 -24
71 -40 71 -8 0 -12 5 -9 10 7 12 81 -37 90 -58z m205 59 c0 -5 -9 -11 -20 -14
-22 -6 -28 8 -7 16 19 8 27 8 27 -2z m48 -12 c9 -11 29 -27 45 -35 34 -18 35
-30 2 -36 -17 -4 -25 -1 -25 9 0 7 -7 16 -15 20 -19 7 -50 63 -35 63 6 0 18
-9 28 -21z m642 6 c0 -8 -7 -15 -15 -15 -9 0 -12 6 -9 15 4 8 10 15 15 15 5 0
9 -7 9 -15z m-47 -27 c38 -18 33 -28 -10 -21 -31 5 -40 2 -57 -19 -12 -14 -35
-28 -53 -31 l-32 -6 14 32 c21 49 84 70 138 45z m87 -10 c0 -19 -2 -20 -10 -8
-13 19 -13 30 0 30 6 0 10 -10 10 -22z m-887 -38 c7 0 6 -4 -3 -10 -13 -8 -13
-10 1 -10 9 0 16 -7 16 -15 0 -13 -3 -13 -21 -1 -12 7 -20 16 -18 20 1 3 3 16
3 29 1 16 2 18 6 5 2 -10 10 -18 16 -18z m-108 0 c3 -5 1 -10 -4 -10 -6 0 -11
5 -11 10 0 6 2 10 4 10 3 0 8 -4 11 -10z m740 -10 c-10 -12 -25 -18 -32 -16
-7 3 -13 1 -13 -4 0 -6 -7 -10 -15 -10 -28 0 -15 29 18 39 54 15 62 14 42 -9z
m145 10 c0 -5 -7 -10 -16 -10 -8 0 -12 5 -9 10 3 6 10 10 16 10 5 0 9 -4 9
-10z m240 0 c0 -5 -4 -10 -10 -10 -5 0 -10 5 -10 10 0 6 5 10 10 10 6 0 10 -4
10 -10z m-106 -13 c13 -10 16 -20 11 -36 -9 -30 -28 -21 -36 17 -7 35 -2 39
25 19z m-624 -32 c0 -23 -2 -24 -20 -13 -23 15 -25 24 -7 31 23 10 27 7 27
-18z m700 21 c0 -3 -4 -8 -10 -11 -5 -3 -10 -1 -10 4 0 6 5 11 10 11 6 0 10
-2 10 -4z m-110 -37 c0 -11 -4 -17 -10 -14 -5 3 -10 13 -10 21 0 8 5 14 10 14
6 0 10 -9 10 -21z m-880 1 c0 -5 -5 -10 -11 -10 -5 0 -7 5 -4 10 3 6 8 10 11
10 2 0 4 -4 4 -10z m850 -24 c0 -18 -8 -27 -30 -35 -16 -5 -30 -8 -30 -5 0 2
-14 -3 -31 -11 -53 -28 -43 -9 18 34 32 22 61 40 66 40 4 1 7 -10 7 -23z
m-772 -19 c20 -21 21 -25 6 -43 -8 -10 -13 -14 -10 -8 7 14 -29 48 -42 40 -6
-3 -12 0 -15 8 -13 33 31 35 61 3z m72 -62 c11 -13 10 -14 -4 -9 -9 3 -16 10
-16 15 0 13 6 11 20 -6z m480 -17 c0 -5 -11 -8 -25 -8 -14 0 -25 4 -25 9 0 5
11 8 25 7 14 0 25 -4 25 -8z"/>
<path d="M1815 6019 c-4 -6 -5 -12 -2 -15 2 -3 7 2 10 11 7 17 1 20 -8 4z"/>
<path d="M3691 5601 c-7 -5 -12 -14 -10 -20 2 -6 10 -2 17 9 14 22 13 23 -7
11z"/>
<path d="M2640 5524 c-37 -20 -40 -23 -15 -18 17 4 39 15 50 25 24 23 22 23
-35 -7z"/>
<path d="M1030 5476 c0 -8 4 -17 9 -20 5 -4 7 3 4 14 -6 23 -13 26 -13 6z"/>
<path d="M1960 5475 c14 -7 27 -11 30 -9 6 7 -22 24 -40 23 -9 0 -5 -6 10 -14z"/>
<path d="M1414 5005 c11 -8 22 -12 25 -9 6 6 -19 24 -34 24 -5 -1 -1 -7 9 -15z"/>
<path d="M942 4763 l-64 -68 6 -54 5 -54 -22 31 c-12 18 -25 32 -29 32 -4 0
-23 -24 -43 -52 -29 -44 -35 -62 -35 -105 0 -51 5 -59 34 -54 5 1 4 -5 -3 -13
-16 -19 -7 -64 22 -109 12 -18 31 -48 41 -67 10 -19 28 -45 39 -57 l20 -23 13
26 c15 29 8 84 -11 84 -11 0 -45 56 -45 74 0 3 9 6 19 6 11 0 33 -17 51 -37
24 -30 33 -35 39 -24 7 11 17 6 45 -22 20 -20 36 -42 36 -49 1 -7 7 2 15 20
11 26 20 32 44 32 16 0 36 3 45 6 11 4 19 -2 25 -17 6 -16 10 -18 10 -8 1 9 8
22 16 29 13 10 15 9 15 -11 -1 -13 -7 -35 -15 -49 -20 -35 -18 -46 3 -27 24
22 32 21 32 -2 0 -12 -8 -21 -22 -24 l-23 -4 23 -2 c12 0 22 -5 22 -11 0 -5 5
-10 11 -10 7 0 8 14 4 40 -6 38 -6 40 19 40 14 0 26 4 26 9 0 15 112 25 121
10 4 -7 5 -17 2 -23 -4 -5 0 -7 9 -3 9 3 21 0 28 -6 7 -7 6 -1 -3 13 -23 33
-21 40 8 40 14 0 25 5 25 11 0 5 5 7 12 3 6 -4 8 -3 5 3 -4 6 -22 9 -42 6 -20
-2 -35 1 -35 7 0 5 6 10 13 11 6 0 3 4 -8 9 -18 9 -18 9 5 8 48 -2 90 2 90 10
0 4 -4 13 -9 21 -8 12 -16 12 -56 -1 -43 -14 -47 -14 -52 1 -13 42 -24 61 -35
61 -33 1 -39 15 -24 58 19 52 13 54 -13 5 -11 -21 -29 -49 -39 -62 l-20 -24
-17 37 c-16 33 -22 37 -47 34 -26 -4 -27 -4 -11 14 9 10 11 18 5 18 -6 0 -13
-4 -16 -9 -3 -5 -14 -11 -25 -14 -14 -3 -18 -1 -14 9 3 8 -1 14 -8 14 -10 1
-9 4 3 11 19 11 13 40 -7 33 -7 -3 -15 5 -19 18 -5 19 -8 20 -15 9 -8 -12 -12
-9 -23 15 -7 16 -18 35 -25 42 -16 16 -17 32 -3 32 18 0 11 20 -7 20 -15 1
-15 3 5 19 12 11 22 29 22 40 0 22 -14 28 -25 11 -4 -6 -13 -9 -20 -8 -8 2
-14 -1 -13 -6 0 -5 -6 -13 -14 -17 -35 -22 -38 2 -4 32 16 14 22 27 18 45 -4
21 -7 23 -20 12 -13 -11 -15 -10 -9 5 3 9 5 17 4 17 -1 0 -31 -30 -65 -67z
m268 -333 c0 -5 -4 -10 -10 -10 -5 0 -10 5 -10 10 0 6 5 10 10 10 6 0 10 -4
10 -10z m155 -48 c-3 -8 -6 -19 -6 -25 -1 -7 -5 2 -9 18 -7 29 -8 29 -15 8 -4
-13 -11 -23 -16 -23 -14 0 -11 18 8 46 16 25 17 25 30 8 7 -10 11 -25 8 -32z
m-95 6 c0 -5 -4 -8 -10 -8 -5 0 -10 10 -10 23 0 18 2 19 10 7 5 -8 10 -18 10
-22z m130 -18 c0 -11 -4 -20 -10 -20 -5 0 -10 9 -10 20 0 11 5 20 10 20 6 0
10 -9 10 -20z m120 -14 c0 -3 -4 -8 -10 -11 -5 -3 -10 -1 -10 4 0 6 5 11 10
11 6 0 10 -2 10 -4z"/>
<path d="M1340 4805 c-7 -9 -10 -18 -7 -21 3 -3 10 4 17 15 13 25 8 27 -10 6z"/>
<path d="M1446 4684 c-9 -24 -7 -27 9 -10 17 17 19 26 6 26 -5 0 -12 -7 -15
-16z"/>
<path d="M2633 4555 c0 -22 2 -30 4 -17 2 12 2 30 0 40 -3 9 -5 -1 -4 -23z"/>
<path d="M1600 4361 c0 -25 -37 -71 -58 -71 -13 0 -12 -2 4 -14 10 -8 21 -10
22 -5 2 5 10 9 18 9 9 0 13 4 9 10 -3 5 1 26 10 46 18 43 18 44 5 44 -5 0 -10
-8 -10 -19z"/>
<path d="M2770 4316 c0 -22 3 -27 11 -19 8 8 8 16 0 30 -9 16 -10 14 -11 -11z"/>
<path d="M2661 4314 c0 -11 3 -14 6 -6 3 7 2 16 -1 19 -3 4 -6 -2 -5 -13z"/>
<path d="M1390 4230 c19 -13 30 -13 30 0 0 6 -10 10 -22 10 -19 0 -20 -2 -8
-10z"/>
<path d="M1286 4204 c-9 -23 -8 -26 6 -17 7 4 26 6 43 5 25 -1 27 0 10 7 -11
5 -23 7 -27 4 -5 -2 -8 1 -8 6 0 17 -17 13 -24 -5z"/>
<path d="M1063 4190 c-1 -12 4 -20 13 -20 9 0 14 7 12 17 -4 24 -23 27 -25 3z"/>
<path d="M1900 4201 c-90 -6 -129 -19 -95 -31 15 -5 18 -18 19 -68 1 -34 -2
-62 -6 -62 -5 0 1 -9 12 -20 31 -31 25 -46 -17 -46 -28 0 -39 -4 -41 -17 -3
-14 5 -17 51 -17 59 0 76 15 57 50 -15 27 -13 36 13 48 l22 12 -24 -3 c-20 -2
-26 4 -33 32 -11 39 -5 49 17 31 13 -11 14 -10 9 4 -3 9 -10 16 -15 16 -5 0
-9 7 -9 15 0 21 122 22 139 1 15 -18 9 -65 -10 -77 -11 -7 -10 -9 6 -9 18 0
20 -7 20 -57 0 -49 3 -58 19 -61 17 -4 18 2 14 77 -5 83 1 96 32 69 8 -7 3 1
-12 17 -15 17 -30 42 -33 58 -4 15 -12 30 -18 34 -6 4 -7 1 -3 -8 4 -8 1 -6
-7 4 -8 9 -16 16 -18 15 -2 -1 -42 -4 -89 -7z"/>
<path d="M2190 4190 c-9 -17 -7 -26 14 -51 32 -38 33 -67 4 -79 -19 -7 -20 -9
-5 -9 19 -1 19 -6 -6 -78 -11 -33 -6 -50 12 -39 5 4 22 45 36 91 25 82 27 85
48 74 20 -11 21 -11 8 5 -12 15 -12 19 0 31 8 8 28 17 46 21 41 8 60 -20 74
-111 12 -75 3 -99 -29 -79 -9 6 -24 8 -32 3 -8 -4 -23 -10 -33 -13 -36 -11 -6
-24 54 -23 78 0 87 15 72 115 -6 37 -6 68 -2 70 16 7 -64 72 -88 72 -34 0 -89
-25 -102 -47 -9 -15 -12 -16 -20 -3 -5 8 -7 19 -4 25 4 5 3 7 -2 3 -10 -10
-38 19 -30 32 3 5 4 10 1 10 -3 0 -10 -9 -16 -20z"/>
<path d="M1040 4150 c0 -5 5 -10 10 -10 6 0 10 5 10 10 0 6 -4 10 -10 10 -5 0
-10 -4 -10 -10z"/>
<path d="M1080 4144 c0 -8 5 -12 10 -9 6 3 10 10 10 16 0 5 -4 9 -10 9 -5 0
-10 -7 -10 -16z"/>
<path d="M1270 4066 c0 -16 11 -27 35 -39 19 -9 35 -14 35 -10 0 4 -16 21 -35
39 -33 30 -35 30 -35 10z"/>
<path d="M1422 4051 c-12 -10 -22 -24 -22 -32 0 -8 11 -3 27 13 31 32 27 47
-5 19z"/>
<path d="M761 2974 c0 -11 3 -14 6 -6 3 7 2 16 -1 19 -3 4 -6 -2 -5 -13z"/>
<path d="M3670 2969 c0 -5 5 -7 10 -4 6 3 10 8 10 11 0 2 -4 4 -10 4 -5 0 -10
-5 -10 -11z"/>
<path d="M3590 2889 c0 -5 5 -7 10 -4 6 3 10 8 10 11 0 2 -4 4 -10 4 -5 0 -10
-5 -10 -11z"/>
<path d="M3776 2821 c-4 -7 -5 -15 -2 -18 9 -9 19 4 14 18 -4 11 -6 11 -12 0z"/>
<path d="M1210 2779 c0 -20 4 -29 13 -27 18 7 20 45 3 51 -12 5 -16 -1 -16
-24z"/>
<path d="M1995 2780 c-3 -5 -1 -10 4 -10 6 0 11 5 11 10 0 6 -2 10 -4 10 -3 0
-8 -4 -11 -10z"/>
<path d="M1325 2760 c-3 -5 1 -10 9 -10 9 0 16 5 16 10 0 6 -4 10 -9 10 -6 0
-13 -4 -16 -10z"/>
<path d="M1604 2681 c4 -5 -2 -7 -12 -4 -21 5 -52 -20 -52 -43 0 -11 9 -13 43
-8 63 9 67 11 67 39 0 20 -5 25 -26 25 -14 0 -23 -4 -20 -9z"/>
<path d="M2996 2670 c11 -43 29 -55 68 -43 19 6 45 8 59 6 41 -8 39 12 -4 37
-35 19 -44 21 -65 10 -13 -7 -21 -17 -17 -23 3 -5 -4 -4 -15 2 -11 6 -23 16
-26 23 -3 7 -3 2 0 -12z"/>
<path d="M1206 2636 c-3 -13 -9 -32 -12 -43 -4 -13 -3 -14 4 -5 5 8 13 12 18
10 5 -1 10 12 12 30 4 37 -13 44 -22 8z"/>
<path d="M1005 2518 c9 -16 24 -28 33 -28 8 0 13 1 11 3 -2 1 -17 13 -33 27
l-29 25 18 -27z"/>
<path d="M3290 2505 c-11 -13 -10 -14 4 -9 9 3 16 10 16 15 0 13 -6 11 -20 -6z"/>
<path d="M2911 2474 c0 -11 3 -14 6 -6 3 7 2 16 -1 19 -3 4 -6 -2 -5 -13z"/>
<path d="M2990 2452 c0 -15 11 -21 27 -15 12 5 12 7 1 14 -17 11 -28 11 -28 1z"/>
<path d="M1792 2399 c1 -12 8 -24 15 -26 7 -3 9 3 6 17 -8 29 -25 37 -21 9z"/>
<path d="M1826 2411 c-3 -5 1 -11 9 -15 8 -3 15 -1 15 4 0 13 -18 22 -24 11z"/>
<path d="M3206 2365 c-3 -8 -1 -15 4 -15 6 0 10 7 10 15 0 8 -2 15 -4 15 -2 0
-6 -7 -10 -15z"/>
<path d="M2930 2360 c0 -5 5 -10 10 -10 6 0 10 5 10 10 0 6 -4 10 -10 10 -5 0
-10 -4 -10 -10z"/>
<path d="M3116 2343 c-4 -9 -3 -20 1 -24 4 -4 9 3 9 17 2 28 -1 31 -10 7z"/>
<path d="M3170 2340 c-9 -6 -10 -10 -3 -10 6 0 15 5 18 10 8 12 4 12 -15 0z"/>
<path d="M1816 2141 c-3 -5 1 -11 9 -14 9 -4 12 -1 8 9 -6 16 -10 17 -17 5z"/>
<path d="M2760 1870 c-13 -8 -12 -10 3 -10 9 0 17 5 17 10 0 12 -1 12 -20 0z"/>
<path d="M1850 1805 c0 -17 2 -18 24 -9 23 9 20 24 -4 24 -11 0 -20 -7 -20
-15z"/>
<path d="M2395 1099 c-4 -6 -5 -12 -2 -15 2 -3 7 2 10 11 7 17 1 20 -8 4z"/>
<path d="M2423 1055 c-32 -31 -29 -37 20 -33 37 3 42 6 45 29 3 22 -1 26 -20
26 -13 0 -33 -10 -45 -22z"/>
<path d="M2256 1021 c-3 -4 4 -7 14 -6 27 2 33 10 10 12 -11 1 -22 -2 -24 -6z"/>
<path d="M362 1038 c-8 -8 -11 -42 -10 -97 l2 -86 5 90 6 90 175 3 c96 1 185
0 198 -3 20 -5 22 -11 24 -93 l2 -87 3 83 c3 54 0 89 -8 98 -15 19 -378 21
-397 2z"/>
<path d="M567 927 c33 -35 70 -78 82 -95 l22 -32 -55 0 c-47 0 -56 3 -56 18 0
20 18 42 35 42 5 0 4 -4 -4 -9 -7 -5 -10 -14 -6 -20 5 -9 10 -9 20 -1 21 17 6
43 -20 37 -19 -3 -24 2 -29 26 -13 66 -80 91 -111 43 -27 -41 13 -90 51 -62
18 14 13 53 -5 41 -6 -3 -7 -13 -4 -22 4 -11 2 -14 -8 -11 -8 3 -14 16 -14 29
0 19 5 24 25 24 31 0 50 -35 50 -92 l0 -43 -60 0 c-57 0 -61 -2 -71 -27 -6
-16 -7 -39 -4 -53 4 -14 6 -36 6 -50 -1 -44 9 -69 30 -75 11 -4 24 -18 29 -31
9 -22 15 -24 75 -24 63 0 66 1 107 42 l42 42 -1 128 c0 106 -4 133 -20 160
-27 47 -78 78 -126 78 l-39 0 59 -63z m-29 -252 c3 -25 -21 -65 -40 -65 -16 0
-48 40 -48 60 0 11 9 29 21 41 18 18 23 19 42 6 12 -8 23 -27 25 -42z m112 6
c5 -11 10 -24 10 -30 0 -17 -46 -42 -64 -35 -22 8 -31 50 -16 69 18 21 57 19
70 -4z m-80 -81 c0 -5 -10 -10 -22 -10 -19 0 -20 2 -8 10 19 13 30 13 30 0z"/>
<path d="M304 574 c-20 -29 -29 -107 -20 -158 7 -39 50 -96 72 -96 21 0 47 47
60 109 l12 56 1 -47 c1 -25 4 -53 7 -62 8 -20 34 -21 34 -1 0 18 17 20 23 3 3
-10 7 -10 19 0 12 9 18 10 23 2 5 -8 11 -8 21 1 11 9 14 8 14 -5 0 -9 5 -16
10 -16 6 0 10 17 10 38 0 20 5 44 10 52 7 11 10 6 10 -20 0 -19 3 -45 6 -57 7
-24 30 -31 36 -12 6 17 58 21 58 4 0 -7 8 -23 18 -35 13 -17 24 -21 40 -16 52
17 93 178 58 231 -22 33 -38 32 -79 -8 -27 -25 -37 -44 -42 -80 -10 -67 -30
-75 -22 -9 4 38 3 52 -6 52 -7 0 -14 -13 -15 -29 -1 -17 -7 -40 -12 -53 -7
-18 -9 -13 -8 29 2 60 -5 72 -32 56 -14 -10 -19 -9 -24 2 -8 23 -22 18 -22 -7
-1 -67 -5 -98 -14 -98 -5 0 -10 23 -10 50 0 37 -4 50 -15 52 -8 0 -21 1 -27 2
-8 1 -18 -22 -25 -54 -9 -45 -11 -49 -12 -21 -1 18 -11 50 -23 70 l-23 36 -7
-69 c-10 -101 -64 -164 -88 -101 -25 66 2 200 40 200 26 0 23 -43 -4 -70 -22
-22 -23 -25 -7 -25 43 0 62 64 31 103 -27 34 -55 34 -76 1z m510 -82 c-3 -90
-37 -174 -64 -157 -9 6 -11 24 -7 65 8 68 24 110 45 110 11 0 12 3 2 15 -6 8
-9 19 -5 25 14 23 30 -10 29 -58z m-303 -58 l-9 -39 -1 41 c-1 22 2 44 6 48
12 12 14 -8 4 -50z"/>
<path d="M670 534 c0 -31 23 -28 28 4 2 15 -2 22 -12 22 -11 0 -16 -9 -16 -26z"/>
<path d="M558 328 c5 -21 6 -21 13 -2 7 16 8 17 8 2 1 -21 21 -25 21 -4 0 13
-20 26 -40 26 -4 0 -6 -10 -2 -22z"/>
<path d="M424 329 c-3 -6 -2 -15 3 -20 5 -5 9 -1 9 11 0 23 -2 24 -12 9z"/>
<path d="M450 320 c0 -11 4 -20 9 -20 5 0 7 9 4 20 -3 11 -7 20 -9 20 -2 0 -4
-9 -4 -20z"/>
<path d="M480 320 c0 -11 4 -20 8 -20 4 0 8 9 9 20 1 11 -2 20 -8 20 -5 0 -9
-9 -9 -20z"/>
<path d="M516 324 c-8 -21 -8 -21 9 -21 8 0 15 9 15 19 0 22 -16 24 -24 2z"/>
<path d="M610 324 c0 -8 5 -12 10 -9 6 4 8 11 5 16 -9 14 -15 11 -15 -7z"/>
<path d="M672 320 c0 -14 2 -19 5 -12 2 6 2 18 0 25 -3 6 -5 1 -5 -13z"/>
<path d="M640 321 c0 -6 5 -13 10 -16 6 -3 10 1 10 9 0 9 -4 16 -10 16 -5 0
-10 -4 -10 -9z"/>
<path d="M482 243 c37 -2 100 -2 140 0 40 1 10 3 -67 3 -77 0 -110 -1 -73 -3z"/>
</g>
</svg>
